<?xml version="1.0" encoding="utf-8"?>
<!-- Generator: Adobe Illustrator 23.0.6, SVG Export Plug-In . SVG Version: 6.00 Build 0)  -->
<svg version="1.1" id="Layer_1" xmlns="http://www.w3.org/2000/svg" xmlns:xlink="http://www.w3.org/1999/xlink" x="0px" y="0px"
	 viewBox="0 0 100 100" style="enable-background:new 0 0 100 100;" xml:space="preserve">
<style type="text/css">
	.st0{fill:#0094D6;}
</style>
<path class="st0" d="M69.3,87.3c0.4,0.1,0.8,0.5,1.2,0.5c0.5,0,0.7-0.6,1.1-0.8c0.5-0.3,1-0.3,1.5-0.6c0.5-0.2,0.7-0.4,1.2-0.4
	c1.1,0.1,0.6,0.1,0.9-0.8c0.3-0.6,1.4-1.1,2.1-1c-0.1,0,0.4-0.7,0.4-0.9c0-0.2,0-0.9-0.3-1c0.1-0.2,0.6-0.2,0.5-0.5
	c0-0.5-0.7-0.3-1-0.2c-1,0.1-1.8,0.2-2.8,0.2c0.3,0,0.7-0.1,0.7-0.2c0.2-0.5-0.9-0.6-1.2-0.7c0,0.1-0.1,0.3-0.1,0.2
	c-0.4,0,0.1,0.3-0.2,0.4c0.1,0,0.1-0.1,0-0.1c-0.3,0.4-0.4,0.1-0.4,0.1c-0.2,0.1-0.6-0.4-0.7,0c0.2-0.5,1.6-0.4,0.8-0.8
	c-0.8-0.4-1.4,0-1.1-0.2c0.3-0.2,0.8-0.1,1-0.2c-0.1-0.1-0.3-0.1-0.4-0.2c0.3,0,1.4,0.2,1.9-0.3c0.3-0.2,0.4-0.8-0.1-0.4
	c-0.1-0.3,0.7-0.6,0.6-1c-0.2-0.6-1-0.1-1.3,0.2c0.3-0.2,0-0.2-0.2-0.2c0.2-0.1,0-0.1-0.1-0.1c0.2,0.1,1-0.2,1.2-0.3
	c-0.1,0-0.1-0.1-0.2-0.1c0.1,0.1,0.2,0,0.3,0c0,0-0.2-0.2,0.1-0.2c-0.2,0.3,0.3,0.2,0.4,0.1c0.3-0.4-0.7,0-0.3-0.3c0,0,0,0.1,0,0.1
	c0,0,0.2-0.1,0.4,0c-0.1-0.1-0.2-0.1-0.3-0.1c0.2,0.1,0.2,0,0.1-0.3c0.1,0.2,0.6,0.7,0.3,0.6c0.3,0.9,1.9-0.7,1.4-0.9
	c0.2,0.2-0.3,0-0.4,0c0.2-0.2,0.4-0.3,0.5-0.6c-0.4,0.1-1,0.2-1.4,0c0.1,0,1.2,0,1.2,0c0.2-0.3-0.5-0.6-0.6-0.8c0.4,0.3,0.9,0.4,1,1
	c0.1-0.2,0.7-0.5,0.2-0.8c0.1,0,0.2,0.1,0.2,0.2c0.2-0.1,0.3-0.4,0.5-0.6c0.2-0.2,0.5-0.2,0.7-0.4c0.3-0.3,0.2-0.8,0.2-1.2
	c0.1-1.3,0.9-2.3,0.7-3.7c-0.3-1.9-2.5-4.3-4.6-3.8c0,0.1,0.3,0,0.4,0.1c-0.7,0-1.2,0-1.8-0.1c0,0,0.1,0,0.1-0.1
	c-0.2-0.1-0.4-0.1-0.6-0.1c0.1,0,0.1,0,0.2,0c-0.3,0.3-0.7,0-1,0.2c-0.2,0.1-0.3,0.5-0.3,0.7c-0.1,0.2-0.1,0.4-0.1,0.5
	c-0.1,0.2-0.5,0.2-0.4,0.6c-0.1-0.2-0.9-0.4-1.1-0.6c-0.4-0.3-0.6-0.6-1.2-0.4c0.5-0.2,0.7-1,1.1-1.4c0.5-0.5,1-0.6,1.1-1.3
	c0.1-1-0.5-2.2-1-2.8c-0.1-0.3-0.2-0.5-0.4-0.5c0-0.2-0.1-0.2-0.1-0.1c-0.4-0.1-0.5-0.4-0.7-0.6C69,60,68.9,60.1,68.7,60
	c0.1,0-0.6-0.6-0.7-0.7c-0.4-0.4-0.3-0.7-0.9-0.7c-0.3,0-0.5,0.2-0.8,0.2c-0.2,0-0.4-0.1-0.6-0.1c-0.7,0-0.3,0.2-0.7,0.6
	c0.2-0.3,0.1-0.8-0.4-0.6c0.6-0.4,1.2-0.1,1.9-0.2c0.6-0.1,1-0.5,1.5,0c0.4,0.4,0.3,0.8,1,0.8c0.3,0,0.4-0.2,0.7-0.1
	c0.3,0.1,0.5,0.4,0.2,0.7c0.9-0.5-0.8-2.1-1.1-2.5c-0.6-0.8-1.6-2.7-0.1-3c0.1,0-0.7-0.5-0.7-0.5c-0.2-0.1-0.8-0.4-0.4-0.6
	c-1.2-0.4-1.2-2.2-2.1-2.9c-0.6-0.5-3-0.7-3.1-1.5c0,0.3-0.2,0.5-0.5,0.7c0.2-0.1,0.4-0.3,0.3-0.5c-0.1,0-0.1,0.1-0.2,0.1
	c0.4-0.2,0-0.6,0.1-0.8c-0.7-0.4-0.9-1.3-1-2c-0.1-0.3,0-1.3-0.6-1.2c0.4-0.2-0.5-1.7-0.8-1.7c0.7,0.3,0.1-1.8-0.2-1.9
	c0.1-0.1,0.2,0,0.2,0.1c-0.4-0.3-0.2-1.5-0.3-2c-0.1-0.2-0.1-0.6-0.3-0.7s-0.6-0.1-0.7-0.2c0.1,0,0.1,0,0.2-0.1
	c-0.1-0.1-0.2-0.2-0.3-0.4c0,0.6-0.6-0.5-0.7-0.5c0.1,0.1,0.1,0.1,0.2,0.1c-0.4-0.1-0.5-0.7-0.9-0.7c0.1,0,0.2,0,0.2,0
	c-0.3-1-0.8-1.5-1.8-1.8c-0.4-0.1-0.7-0.4-1.1-0.6c-0.1-0.1-0.3-0.1-0.5-0.1c-0.6-0.3-0.1,0.2-0.3-0.2c0,0,0,0.1,0.1,0.1
	c-0.3-0.4-0.6-0.6-1.1-0.6c-0.2,0-0.8,0.2-0.5,0.5c-0.3,0-0.6,0.5-0.9,0.6c-0.4,0.1-0.7-0.1-1-0.3c0,0,0.1,0.1,0.1,0.1
	c-0.2,0.1-0.6-0.1-1-0.1c-0.4,0-0.8-0.1-1.3-0.2c-0.2-0.1-0.4-0.1-0.6-0.1c-0.3,0.2-0.4,0.1-0.3-0.2c-0.1,0-0.1,0.1-0.1,0.1
	c0.2-0.2-0.8-0.7-0.9-1c0.2,0.2,0.5,0.4,0.7,0.5c0.2,0.1,0.6,0.1,0.8,0.2c0.2-0.2,0.4,0,0.7,0.2c0.4,0.2,0.3,0.1,0.7,0
	c0.5-0.2,0.9-0.3,1.3-0.8c0.3-0.4,0.7-1,1.2-1.1c0.4,0,0.5,0.2,1,0.1c0.3-0.1,0.8-0.3,1-0.6c0.4-0.9-1-0.6-1.2-1.2
	c-0.1,0.2-0.4,0-0.6,0.1c0.2-0.2,0.6-0.2,0.6-0.6c0-0.4-0.3-0.5-0.7-0.5c-0.9,0.1-1.5,1-2.4,1.1c0.1-0.2-0.3-0.3-0.4-0.4
	c0.6,0.3,0.9,0,1.4-0.4c0.7-0.5,1.1-0.4,1.9-0.5c1.1-0.1,2.1-1.5,2.4-2.6c-0.3,0.1-0.5,0-0.6-0.2c0.1,0.1,0.3,0,0.4,0
	c0.1,0,0.1,0,0.3-0.1c0.1-0.1,0.1-0.2,0-0.2c0.1,0,0.2-0.1,0.2-0.1c0.2-0.2,0.5-0.4,0.7-0.7c0.3-0.5,0.4-1,0.6-1.6
	c0.2-0.7,0.7-1.2,0.9-1.9c-0.2-0.2-0.2,0.1-0.2-0.3c0-0.2,0.1-0.4,0.2-0.6c0.1-0.4,0.4-0.8,0.3-1.2c0,0.1,0,0.1,0,0.2
	c0.3-0.5,0.8-0.9,1-1.4c0.1-0.2,0.1-0.7,0.3-0.7c-0.2-0.8-0.6-2.2-1.6-2.3c-0.5,0-1,0.2-1.5,0.2c-0.6,0-1.1,0.1-1.8,0
	c-1-0.1-1.7-0.3-2.6,0c-0.2,0.1-0.5,0.1-0.6,0.1c-0.2,0-0.5-0.2-0.7-0.3c-0.1-0.1-0.3-0.3-0.3-0.1c-0.1-0.3-1-0.1-1.2,0
	c-0.3,0.2-0.3,0.6-0.9,0.5c0.1,0,0.2,0.1,0.2,0.2c-0.1,0.1-0.3,0-0.3,0c0.3-0.2-0.3-0.2-0.4-0.2c0,0,0.1,0,0.1,0
	c-0.1,0.1-0.2,0.2-0.4,0.3c0.1-0.1,0.1-0.1,0.2-0.2c-0.6,0.3-1,0.9-1.7,0.5c0,0.1,0.1,0.1,0.2,0.1c-0.3-0.1-0.4-0.1-0.7,0.1
	c0.5,0.1-0.2,0.7-0.3,0.8c-0.5,0.4-1.2,0.3-1.8,0.2c0,0,0.3-0.2,0.4-0.2c0.2,0,0.4,0.1,0.6,0c0.2-0.1,0.6-0.5,0.1-0.5
	c0.4,0.1,0.6-0.4,0.9-0.3c-0.4-0.3,0.2-0.5,0.3-0.8c0.3-0.4,0.2-0.3-0.1-0.4c-0.1,0-0.3,0.1-0.4,0.1c-0.2,0-0.3-0.1-0.5-0.1
	c-0.5,0.1-1,0.7-1.4,1.1c0.5-0.4,0.5-1,1-1.3c0.3-0.1,0.6-0.1,0.8-0.2c0.3-0.1,0.4-0.4,0.7-0.4c-0.3,0.7,0.2,0.3,0.5,0.1
	c0.4-0.4,1-1,1-1.6c-0.2,0-0.9,0.5-1,0.6c0.1-0.1,0.1-0.1,0.2-0.2c-0.4-0.3-0.9,0.4-1.3-0.2c0,0.1,0,0.1,0.1,0.1
	c-0.2,0.1-1.4-0.4-1.4-0.6c0.2,0.2,1.1,0.5,1.3,0.2c0.1,0.3-0.1,0.1,0.3,0.2c0.2,0,0.2-0.2,0.5,0c-0.1-0.3,0-0.5-0.1-0.8
	c0-0.2-0.3,0-0.4-0.3c0.2,0.2,0.6-0.1,0.4,0.2c0.4,0,1.1-1.1,1.4-1.4c0.6-0.6,1.3-0.9,1.9-1.6c0.3-0.3,0.4-0.6,0.8-0.9
	c0.3-0.2,0.7-0.3,1-0.6C50.5,8.6,51,7.6,51,7.1c-0.9,0.4,0-1.6,0.2-1.9c-0.4-0.1-1-0.1-1.4-0.1c0,0-0.7-0.1-0.6-0.1
	c-0.7,0.2,0.3,0.5-0.2,0.7c-0.6,0.2-1.2-0.3-1.9,0c-0.4,0.2-1.9,1-1.9,0c-0.1,0.2-0.2,0.4-0.3,0.6c-0.1-0.1-0.2-0.1-0.3-0.2
	c-0.1,0.1-0.3,0.1-0.4,0.2c-0.2,0.1-0.5,0.1-0.3,0.4c-0.1-0.1-0.2-0.2-0.3,0c0.1-0.4-0.4-0.2-0.6-0.1c-0.4,0.2-0.5,0.7-0.7,1
	c0.1-0.5,0.5-0.8,0-1.3c-0.7-0.7-0.6,0.1-0.9,0.5c0,0,0-0.1,0-0.1c-0.4,0.2-0.4,0.7-0.8,0.9c0.2-0.3,0.7-0.7,0.6-1
	c0-0.2-0.6-0.7-0.8-0.7c0.2,0.2,0,0.8-0.1,1c0-0.1,0-0.1-0.1-0.1c0.8-0.6-0.9-1.1-1-1.2c-0.1,0.2,0,0.5-0.2,0.7
	c-0.1,0.2-0.5,0.4-0.5,0.6c0,0.3,0.4,0.4,0.2,0.6c0.3,0.1,0.4,0.1,0.5,0.4c-0.2-0.2-0.7-0.4-0.8,0c0.1,0,0.2,0,0.2,0.1
	c-0.1,0-0.2,0-0.2,0c0.2,0,0.3,0,0.5,0C39,7.9,38.9,8,38.8,8c0.1,0.1,0.2,0.2,0.2,0.3c-0.1-0.1-0.6-0.3-0.7-0.2
	c-0.3,0.2,0.1,0.4-0.2,0.5c0.1,0.2,0,0.4,0.3,0.3c0.1,0.2,0,0.2-0.1,0.3c0.2,0,0.3,0.3,0.4,0.4c0.3,0.1,0.6,0,0.9,0.1
	c-0.2,0-0.3,0-0.4,0.1c0.1,0.1,0.2,0.2,0.3,0.3c-0.2,0-0.2-0.3-0.4-0.3c0,0-0.3,0-0.4,0c-0.2,0-0.5-0.3-0.5,0.2
	c-0.2-0.3-0.7,0-0.8,0.2c-0.1-0.2-0.3-0.3-0.4-0.5c-0.3,0.2,0.2,1.2,0.6,1.1c-0.3,0.2,0.1,0.2,0.2,0.1c-0.1,0.1-0.2,0.2-0.3,0.2
	c0.3,0.1,0.3,0.2,0,0.2c0.1,0.1,0.1,0.2,0.2,0.2c-0.1,0.2-0.1,0.6-0.4,0.2c-0.1,0.1-0.1,0.1-0.1,0.3c-0.1-0.2-0.3-0.6-0.5-0.3
	c-0.2,0.3,0.3,0.6,0.4,0.7c0.1,0.1,0.9,1.1,1.2,0.8c0,0.2-0.1,0.3-0.3,0.3c0.4,0.2,1,0.7,0.9,1.2c-0.3-0.7-0.6-0.8-1.2-1.1
	c0,0-0.8-0.3-0.7-0.1c0.3,0.4,0.9,0.5,1.1,0.9c-0.5-0.2-1.2-1.1-1.4-0.1c-0.4-0.2-0.8-1-1.1-0.6c-0.3,0.4,0.2,0.6,0.3,0.9
	c0.1,0.2-0.1,0.6-0.1,0.4c-0.1,0.1,0,0.2,0.1,0.3c-0.4,0.2-0.4-1.4-1.1-1.1c-0.3,0.1-0.4,1-0.2,1.2c0.2,0.4,0.9,0.3,0.8,0.8
	c-0.5-0.4-0.8,0.1-0.7,0.5c0,0.2,0.3,0.4,0.4,0.5c0.1,0.1,0.5,0.4,0.2,0.3c0.2,0.5,0.7,0,1.1,0.3c-0.1-0.1-0.5,0.3-0.8,0
	c0,0.1,0,0.2,0,0.4C35.1,18,35,17.8,35,17.6c-0.1,0.1-0.1,0.1,0,0.2c-0.5-0.2-0.7-0.6-0.9,0.1c-0.1,0.3-0.2,1.1,0.3,1
	c-0.1,0.2-0.1,0.3,0,0.5c-0.1-0.1-0.1,0.3,0,0.4c0.1-0.4,0,0.1,0.1,0.1c0.1,0,0.2,0,0.4-0.1c0.2-0.1,0.6-0.4,0.7-0.6
	c0.1,0.2-0.1,0.6,0,0.6c-0.1,0.1,0.4,0,0.4,0c0.3-0.1,0.3-0.5,0.6-0.6c0,0.5-0.8,0.9-1.3,1c0,0,0-0.1,0.1-0.1
	c-0.4,0.1-0.5,0.5-0.2,0.8c0.2,0.1,0.7,0,0.9,0.1c0.3,0.1,0.4,0.5,0.8,0.4c-0.5,0.4-0.4-0.3-0.9-0.4c-0.4,0-0.7,0.4-0.7,0.7
	c-0.1,0.5,0.1,0.5,0.5,0.7c0.2,0.1,0.3,0.3,0.5,0.3c0.2,0.1,0.4-0.2,0.7-0.1c-0.3,0-0.5,0.3-0.7,0.3c-0.2,0-0.3-0.2-0.5-0.3
	c-0.4-0.2-1.1-0.2-1.1,0.4c0,0.4,0.4,0.3,0.6,0.6c0.1,0.1,0,0.3,0.3,0.4c0.2,0.1,0.5-0.3,0.7-0.1c-0.5,0-0.5,0.3-1,0.1
	c-0.4-0.1-1-0.7-1,0.1c0.3,0.2,0.2,0.1,0.2,0.1c-0.3-0.1-0.5,0.6-0.2,0.6c-0.2,0.1-0.3,0.2-0.4,0.3c0.1-0.2,1-0.1,1.2,0
	c-0.2,0-0.3,0.1-0.4,0.3c0.4,0.1,0.4-0.2,0.7-0.2c-0.3,0.2-1.9,0.8-0.5,1c-0.1,0-0.9,0.1-0.9,0.1c0,0.2,0.2,0.2,0.3,0.4
	c-0.2,0-0.2-0.1-0.2-0.2c-0.3,0.3-0.2-0.2-0.4-0.2c-0.1,0-0.6,0.2-0.8,0.2c-0.4,0.1-1.3,0.3-0.6,0.9c0.1,0.1,1,0.1,1.2,0.1
	c0.4,0,0.6,0,1-0.1c0.3-0.1,0.3-0.2,0.7-0.2c0.2,0,0.9,0.1,1.1,0.2c-0.4,0-2.6-0.2-1.8,0.7c-1.9-1.3-0.2,1.9,0.5,0.6
	c-1,1.3,2.5-0.1,1.3-0.6c0.5,0.2,0.6-0.4,0.9-0.6c0.1-0.1,0.4-0.2,0.5-0.3c0.2-0.2,0.2-0.4,0.4-0.6c0.2-0.2,0.7-0.6,0.7-0.8
	c-0.1-0.2-1,0-1.3-0.3c0.5,0.1,1,0.1,1.5,0.3c-0.4,0.4-0.8,0.9-1,1.4c0.6,0.1,0.8,0.1,1.5-0.1c-0.6,0.4-1.5,0.2-1.9,0.8
	C37,28,37,28.5,36.7,28.8c0.2,0,0.2,0.1,0.4,0.1c0.2,0,0.4-0.2,0.6-0.3c-0.2,0.3-1.1,0.5-0.9,0.3c-0.2,0-0.3,0.4-0.4,0.6
	c0.1,0,0.1,0,0.1-0.1c0,0,0,0.1,0,0.1c0.1-0.1,0.2-0.2,0.2-0.3c0.1,0.2,0.1,0.3,0.1,0.5c0.6-0.2,1.1,0.3,1.5-0.2
	c0.2-0.2,0.2-0.9,0.7-0.9c-0.4,0-0.4,0.7-0.6,0.9c-0.3,0.4-0.5,0.3-0.9,0.3c-0.4,0-0.7-0.2-1,0.1c-0.2,0.2-0.5,0.8-0.3,1
	c0.1-0.2,0.3,0,0.4-0.2c-0.2,0.2-0.5,0.2-0.7,0.4c-0.2,0.3-0.1,0.6-0.2,0.9c0.4-0.1,0.4-0.2,0.7-0.1c-0.2,0.1-0.3,0.1-0.5,0.2
	c0.3,0.2-0.1,0.9-0.3,1.1c0.2-0.1,0.4-0.6,0.7-0.6c-0.1,0.3-0.4,0.6-0.4,0.9c0.2-0.2,0.2,0.3,0.2,0.3c-0.4-0.5-1.1,1.1-1.1,1.4
	c0-0.1,0.1-0.1,0.2-0.1c-0.1,0.1-0.1,0.2,0,0.3c0.1-0.3,0.1-0.5,0.3-0.8c0,0.1-0.1,0.1-0.1,0.2c0.1,0,0.4-0.5,0.5-0.5
	c0,0-0.1,0-0.1,0c0.1,0,0.1-0.1,0.2-0.1c0,0-0.1,0.1-0.2,0.3c0.1,0,0.1-0.1,0.2-0.1c-0.2,0.4-1,1-0.7,1.5c0.1-0.2,0.4-0.4,0.6-0.6
	c0,0.2-0.9,1.9-0.2,1.6c-0.1,0.1-0.1,0.2-0.1,0.3c0.5-0.1,0.8-0.7,1.1-1c-0.2,0.7-0.9,1.2-1.3,1.9c-0.5,0.9-0.3,1.9-0.6,2.8
	c-0.3,0.7-0.6,1.3,0.4,1.2c0.7-0.1,1.7-0.9,0.5-1.3c0.4,0,0.7-1.1,0.8-1.4c0.1-0.7-0.1-1.3,0.4-1.9c0.2-0.2,0.5-0.3,0.5-0.7
	c0-0.4-0.4-0.5-0.5-0.7c-0.2-0.3-0.3-1.4-0.2-1.8c0,0.1,0.1,0.3,0.2,0.4c0.3-0.2,0.5-0.4,0.4-0.7c0.1,0.1,0.9-0.8,1-0.9
	c0.3-0.3,0.4-0.8,0.7-1c0.1,0.1,0.3,0.1,0.4,0c0.1-0.1,0.3-0.2,0.4-0.3c-0.5,0.9-1.7,1.5-2.2,2.5c-0.3,0.5-0.4,0.9-0.3,1.4
	c0.1,0.7,0.2,0.6,0.8,0.9c0-0.3-0.2-0.5-0.1-0.8c0-0.2,0.2-0.6,0.2-0.9c0,0.3,0.5,0.9,0.7,0.9s-0.3-0.7-0.2-1.2
	c0,0.3,0.4,1.5,0.7,1.5c0.4,0,0.7-1.2,0.2-1.4c0.6,0.1,0.3-1.6,0.4-1.9c0.1,0.2-0.1,0.6,0.2,0.8c0.2-0.3,0.3-0.9,0.7-1.1
	c-0.3,0.4-1.4,2-0.5,2.4c0.7,0.3-0.1-0.7,0-1c0.1,0.3,0.1,0.5,0.3,0.8c0.1,0.1,0.7,0.3,0.4,0.4c0.5,0.3,1.3,0.4,1.7,0.8
	c-0.3-0.4-1.2-0.3-1.7-0.4c-0.6-0.1-1-0.2-1.1,0.5c0,0.3,0.1,0.5,0.1,0.8c0,0.4-0.2,0.8-0.2,1.1c0.1,0.7,0.8,0.8,1.2,1.1
	c0-0.1,0.4,0.7,0.1,0.6c0.4,0.9,0.3,0.8-0.3,1.5c-0.6,0.7-0.6,1.6-1.1,2.4c-0.4,0.7-0.9,1.2-0.6,2c0.1,0.3,0.3,1.3-0.3,0.5
	c-0.1-0.1,0-1.2-0.6-0.6c-0.2,0.2,0,1,0.1,1.3c0.3,0.6,0.9,1,1.1,1.6c0.1,0.4,0,1.1,0.7,0.9C39.8,49,40,48.9,40,48.7
	c0-0.1-0.1-0.3-0.2-0.4c-0.1-0.3-0.4-0.8-0.2-1.2c0.4-0.7,0.8-0.3,1.2,0c0.5,0.4,1,1,1.5,1.3c0.2,0.1,0.4,0.3,0.6,0.2
	c0.3-0.2-0.1-1.2,0.2-1.1c0.1-0.3-0.4-0.4-0.4-0.6c-0.1-0.3,0.1-0.4,0.1-0.7c0.2,0.7,0.5,0.8,1.2,0.5c-0.4,0.6,0.4,0.7,0.7,1.1
	c0.2-0.2,0-0.5,0.2-0.8c-0.1,0.4,0,0.7,0.4,0.8c0.2,0,0.5-0.2,0.7-0.3c0.2-0.2,0.4-0.2,0.1-0.5c0,0,0.2,0,0.3,0c0-0.1,0-0.4,0-0.5
	c0.1,0.3,0.2,0.3,0.3,0.3c0.1,0,0.8-0.1,0.7-0.1c0.6-0.2,0.5-0.9,0.3-1.4c0.1,0.3,0.9,0.7,0.8,0.2c0.3,0.3,0.9,0.2,1.3,0.2
	c0.2,0,1-0.2,1.1,0c-0.2,0-0.3,0.1-0.3,0.3c0.2-0.1,0.3,0,0.4,0c-0.3,0-0.6,0.1-0.9,0.1c-0.2,0-0.2-0.2-0.5-0.1
	c-0.6,0.1-0.2,0.4,0.1,0.5c-0.2-0.1-0.4,0.1-0.3,0.4c-0.4-0.7-0.7,0.1-0.8,0.5c-0.3,0.7-0.6,1.3-0.9,1.9c-0.2,0.5-0.5,1.1-0.3,1.7
	c0.1,0.5,0.7,1.1,1.1,1.4c0.1-0.1,0-0.1-0.1-0.2c0,0,0.1,0.1,0.2,0.2c-0.2,0.4,0,1.4,0.5,1.6c0.3,0.1,0.8-0.3,0.6-0.6
	c0.3,0.3,0,0.6,0,0.9c0,0.2,0,1,0.2,0.6c0,0,0.1,0.3,0.4,0.4c0-0.6,1-1.1,0.6-1.7c0.4,0.1,0.1,0.8,0.7,0.7c0.2,0,0.8-0.7,0.8-0.9
	c0.3,0.2-0.2,0.4-0.3,0.6c0,0.1,0.2,0.6,0.4,0.6c-0.3,0.5-1.1,0.9-0.5,1.4c0.2-0.2,0.2-0.3,0.2-0.6c0.1,0.2-0.3,0.7-0.1,0.8
	c-0.6,0.2-0.9,0.3-0.7,1c-0.2-0.2-0.3-0.4-0.2-0.7c-0.2,0-0.9,2.6,1,1.9c-0.1,0.1-0.1,0.2,0,0.3c-0.5-0.3-0.9,0.3-1.1,0.5
	c-0.4,0.6-0.5,1-0.3,1.7c0.2,0.5,0.4,1.1,0.8,1.4c0.6,0.5,0.9-0.1,1.5,0c-0.4,0.1-0.7,0.6-1.1,0.6c-0.6,0-0.7-0.6-0.9-0.9
	c-0.2-0.2-0.6-0.8-0.9-0.3c-0.2,0.3,0.2,0.8,0.4,1c0,0,0.3,0.6,0.2,0.8c-0.3-0.2-0.7-0.4-0.9-0.7c-0.1-0.1-0.3-0.5-0.5-0.5
	c-0.2-0.1-1.3,0.2-1.1,0.6c-0.1-0.3-0.8,0.1-1,0c-0.5,0-0.8-0.6-1.3-0.4c0.2,0.2,0.6,0.6,0.4,0.9c0-0.8-0.8-0.2-1.1-0.1
	c-0.6,0.3-2,0.5-1.9,1.5c0-0.1-0.5,0.8-0.6,1c-0.1,0.1-0.7,0.9-0.9,0.5c-0.1,0.2-1.6,1.5-1,1.7c0.2-0.5,1.1-0.5,1.2,0.1
	c0.4-0.3,0.2-1,0.8-1.1c0.3-0.2,1.6-0.2,2-0.4c-0.1,0.2-0.3,0.3-0.5,0.3c0.1,0.2,0.1,0.9,0.1,0.7c-0.2,0.1,0,0.6,0.1,0.7
	c0.3,0.3,0.5,0.2,0.9,0.2c0,0-0.7,0.5-0.5,0.2c0,0.4-0.6,0.9-0.3,1.4c0.3,0.4,0.6,0.1,1,0.2c-0.2,0.1-0.5,0.4-0.7,0.2
	c0,1.3-0.6,2.5-1.7,3.1c-0.4,0.2-0.8,0.7-1.2,0.8c-0.3,0.1-1-0.2-0.8,0.5c-0.2-0.9-1.1,0.5-0.9,0.6c-0.3,0.1-0.7,0.1-1,0.2
	c0-0.1,0.1-0.1,0.1-0.1c-0.3-0.6-0.7,0.1-0.8,0.3c-0.2,0.2-0.5,0.4-0.8,0.6c-0.2,0.1-0.3,0.2-0.5,0.3c0.1,0.1,0.1,0.3,0,0.4
	c0.4,0,1.3-0.2,1.3,0.5c0,0.4-0.6,0.8-0.9,0.7c0,0,0.5,0.6,0.6,0.4c0-0.1-0.1-0.2-0.1-0.4c0.1,0.3,0.4,0.1,0.4-0.1
	c-0.2,0.4,1,0.4,1.2,0.2c-0.2,0.1-0.2,0.2,0,0.2c-0.1,0-0.5-0.1-0.5,0.1c0.1,0,0.2,0,0.3,0.1c-0.2,0-0.9-0.2-0.7,0
	c-0.2,0-0.3-0.2-0.5,0c0.4,0.1,0.4,0.7,0.8,0.8c0.2,0,0.3-0.1,0.5-0.2c0.2-0.1,0.4-0.1,0.6-0.2c0.6-0.2,0.3-0.4,0.7-0.7
	c0.5-0.4,1.1,0.1,1.5-0.3c-0.1-0.1-0.2-0.3-0.3-0.4c0.2,0.1,0.2,0.3,0.3,0.3c0.2,0,0.3-0.3,0.5-0.4c-0.5,0.2-0.1,0.5,0.2,0.7
	c-0.6-0.2-0.2,0.4,0.1,0.5c0.1,0,0.3-0.1,0.5-0.1c0.3,0,0.3,0.3,0.7,0.2c-0.3,0.2-0.8,0.6-0.9,0.1c-0.1,0.2-0.3,0.2-0.3,0.4
	c-0.1,0.2,0.1,0.3-0.1,0.4c0.3,0.1,0.6,0.1,1,0.2c-0.2-0.3,0.9-0.2,1-0.3c-0.5-0.4,0.8-0.4,0.9-0.6c0,0.2,0,0.5,0.3,0.4
	c-0.2,0,0,0.5,0.2,0.7c0.1,0.2,0.3,0.2,0.5,0.3c0.1,0,0.1,0,0.2,0c0,0.2,0,0.3,0.2,0.3c0.4,0.4,1.7,0.8,2,0.4c0.1,0,0.1,0,0,0.1
	c0.3-0.2,0.7-0.4,0.6-0.8c0.1,0.1,0.1,0.1,0.2,0.1c0.3-0.4,1.2-0.6,0.9-1.1c0.1,0.1,0.1,0.3,0,0.4c0.4,0.2,2.1-0.2,1.9-0.9
	c0.1,0.3,0.2-0.1,0.5-0.4c0.2-0.2,1-0.9,1-1c0-0.1-0.2-0.1-0.2-0.1c0.2-0.3,0.2,0.1,0.6-0.1c0-0.1,0-0.1-0.1-0.2
	c0.3,0.5-0.3,0.1-0.4,0.2c0,0.1,0,0.1,0.1,0.2c0.3,0.1-0.5,0.6-0.6,0.7c-0.5,0.6-0.7,1.3-1.2,1.9c0,0,0,0.1,0.1,0.2
	c-0.6-0.4-2.4,1.4-1.7,1.9c-0.1-0.2-0.2-0.3-0.4-0.3c0.5,0.2,0.1,1.2,0.1,1c-0.8,0.9-2.5,0.1-3.5,0c-0.8-0.1-1.5-0.2-2.3-0.1
	c-0.4,0-1,0.1-1.3,0.3c-0.3,0-0.4,0.2-0.2,0.3c0,0.2-0.1,0.2-0.3,0.2c0.2,0.2,0.1,0.6,0.4,0.7c0.3,0.1,0.1,0.1,0,0.5
	c0.2-0.5-0.2-0.2-0.3-0.2c-0.1,0-0.2,0.2-0.3,0.3c-0.4,0.2-0.3,0.1-0.6,0.1c-0.4,0-0.6-0.2-0.9,0.2c-0.2,0.3-0.1,0.7-0.1,1.1
	c0,1-0.6,1.5-1.2,2.2c-0.1,0.2-0.2,0.3-0.4,0.4c-0.1,0.1-0.5,0-0.5,0.1c-0.4,0.4,0.2,0.4,0.4,0.6c-0.1-0.1-0.5-0.1-0.6,0
	c0-0.1,0-0.3,0-0.4c-0.1,0.2-0.4,0.3-0.6,0.2c0.4,0.4-0.2,1.1-0.5,1.3c0.1,0,0.2,0.1,0.3,0.1c-0.5-0.1-0.7,0.7-0.9,0.9
	c-0.2,0.2-0.4,0.3-0.6,0.5c-0.3,0.2-0.4,0.5-0.6,0.8c-0.5-0.9-2,0.3-1.6,1c0.2,0.4,0.5,0.2,0.8,0c0.4-0.4,0.1-0.6,0.8-0.4
	c0.3,0.1,0.7,0.2,0.9,0.5c0.2,0.3,0.1,0.7,0.5,0.8c0.3,0,0.8-0.4,0.8-0.7c0.1-0.7-0.4-0.2-0.8-0.5c0.2,0.1,0.3,0,0.3-0.1
	c0,0.4,0.6-0.3,0.7-0.3c-0.1-0.1-0.2-0.2-0.3-0.2c0.1,0,0.2,0,0.3,0c0-0.1,0.2-0.5,0.1-0.6c0.1,0.1,0.1,0.4,0.1,0.7
	c0.1,0,0.1-0.1,0.2-0.1c-0.1,0.1,0,0.2-0.1,0.3c0.3-0.2,0.7-1.3,1.3-0.8c0.1-0.1,0.5-1.8,0.8-0.9c0.1-0.1,0.2-0.2,0.3-0.2
	c0,0-0.1,0-0.1,0c0.3,0.1,2.7-0.8,2.5,0.2c0.3-0.1,0.3-0.2,0.3-0.5c-0.1,0,0.1,0,0.4,0c0,0-0.1,0.4,0.3,0.4
	c-0.3,0.1,0.6,0.3,0.7-0.2c-0.2,0.3,0.2,0.6,0.4,0.4c-0.4,0.3,0.3,0.8,0.5,0.7c0.2-0.1,0.1-0.5,0-0.6c0,0.2,0.1,0.2,0.3,0.1
	c-0.1,0-0.3,0.3,0,0.2c-0.1,0-0.3,0.2-0.1,0.3c0.2,0.1,0.4-0.1,0.7-0.1c-0.4-0.4,1-1.5-0.1-1.6c0.3,0,0.3,0.1,0.5,0
	c-0.1,0.1,0,0.4,0.2,0.4c0.1,0,0.3-0.4,0.4-0.5c-0.1,0-0.5,0-0.4-0.2c0.1-0.2,0.2-0.3,0.4-0.4c-0.4-0.3,0-0.8-0.6-0.7
	c0.3-0.1,0.9-0.2,1-0.7c0,0-0.3-0.6-0.3-0.7c0.3,0.8,0.4,0.9,1.1,0.4c0.6-0.4,1.5-0.8,2.3-0.8c0.8,0,3.2,0.9,2.7,2
	c0.4-0.2,0-0.8,0.2-0.8c-0.3-0.2,1-0.2,1.2-0.2c0.4,0.1,0.7,0.3,1,0.4c0.6,0,0.4-0.3,0.8-0.6c-0.2-0.1-0.2-0.2-0.2-0.4
	c-0.2,0.2-0.3-0.1-0.6,0.1c0.2-0.2,0.1-0.2,0-0.1c0.1,0,0.2-0.1,0.2-0.2c-0.1,0-0.3,0-0.4,0.1c0,0,0.2-0.4,0.2-0.4
	c0,0,0.4,0.2,0.4,0.2c0-0.1-0.1-0.1-0.2-0.2c0.1,0.2,0.6,0.2,0.4,0.5c0.4-0.3,0.9,0,1.3-0.3c-0.1,0,0.7-0.1,1.1,0.2
	c-0.5-0.3,0.8-0.6,0.9-0.7c-0.1-0.1-0.1-0.1-0.1-0.3c0.1,0.4,0.6,0,0.6-0.1c0-0.2-0.6-0.5-0.7-0.8c0.1,0,0.2,0.1,0.2,0.2
	c0.1-0.2,0.8,0.7,0.6,0c0.1,0.2,0.1,0.5,0.3,0.7c0.2,0.1,0.5,0.3,0.6,0.2c0.1-0.1-0.1-0.5-0.2-0.6c0.5,0.2,1.2-0.1,1.5,0.1
	c-0.2-0.1,0,0.2,0,0.3c0-0.1,0-0.2,0-0.3c0.1,0.1,0.2,0.2,0.2,0.2c0-0.1,0-0.2,0-0.2c0,0.3,0.2,0.3,0.3,0.1c0,0.4-0.7,0.1-0.5,0.6
	c0.1,0.3,0.8,0.5,0.9,0.1c-0.1,0-0.1,0-0.2-0.1c0.1-0.2,0.1-0.1,0.2,0c0.5-0.5,1.4-0.4,2-0.5c0.2,0,1.1-0.3,0.9-0.2
	C68.2,86.9,68.7,87.1,69.3,87.3 M27.2,13L27.2,13c0.1,0.1,0.4,0.2,0.6,0.1c-0.1,0.2,0.2,0.2,0.4,0.2c0,0-0.1,0-0.2,0
	c0.1,0.1,0.2,0.2,0.3,0.3c-0.2,0-0.6-0.2-0.7,0c-0.2,0.2-0.1,0.3,0.2,0.4c-0.1,0.1-0.3,0-0.4,0c-0.2,0.1-0.5,0.4-0.6,0.6
	c0-0.2-0.2-0.4-0.4-0.3c0.1,0.5,0.7,0.9,1,1.2c0.1-0.2,0.6-0.4,0.3-0.5c0,0,0.2,0,0.1-0.1c0.1,0,0.1,0.1,0.2,0.1
	c-0.1-0.3,0.1-0.3,0.1-0.4c0.2,0.1,0.1,0,0.1-0.2c0,0.1,0.2,0.3,0.4,0.3c0-0.1,0-0.2-0.1-0.3c0.1,0.1,0.2,0.2,0.2,0c0,0,0,0.1,0,0.1
	c0.1-0.1-0.3-0.8-0.3-0.8c0.2,0,0.4,0.2,0.6,0.2c0.2-0.1,0.2-0.3-0.1-0.4c0.5-0.1,0.1-0.5-0.2-0.4c0.4-0.1-0.1-0.3-0.1-0.4
	c0.1-0.3,0.3-0.4,0.5-0.7c-0.2,0.4,0,1.7,0.4,1.5c-0.1-0.2-0.2-0.3-0.2-0.5c0,0.1,0.3,0.5,0.4,0.6c0-0.1,0-0.1,0-0.2
	c0.3,0.2,0.2-0.3,0.2-0.4c0.1,0.5,0.6,0.2,0.6-0.2c0-0.4-0.5-0.3-0.8-0.4c0.4-0.1,0.9-0.2,1.2,0c0.2-0.4,0.1-0.5-0.3-0.6
	c0.5,0.2,0.4-0.5,0.3-0.4c0.1-0.1,0-0.1,0-0.3c-0.4,0.1-0.7,0.5-1.1,0.3c0,0,1.1-0.3,0.9-0.4c-0.1,0-0.2,0-0.3-0.2
	c0,0,0.6,0.2,0.7,0.1c0,0-0.2-0.1-0.3,0c0.3-0.2,0.2-0.4,0.3-0.6c-0.1,0-0.1,0.1-0.2,0c0-0.1,0-0.2,0.1-0.3c0.4,0.7,1.4,0,1.5-0.6
	c-0.3,0-0.3,0.3-0.6,0.4c-0.3,0.1-0.5,0.1-0.8,0c0.5-0.1,0.6-1.3,1.3-1.4c-0.5-0.2,0-1.1-0.2-1.5c-0.3-0.6-0.7-0.1-1,0.3
	c-0.4,0.4-0.8,0.8-1.3,1c-0.5,0.3-1,0.4-1.5,0.9c0.1,0,0.2,0,0.2,0.1c-0.4,0.1,0.7,1.2,0.3,1.3c0-0.2-0.4-0.4-0.3-0.4
	c0-0.2-0.4-0.7-0.6-0.7c0,0.1,0,0.3,0.1,0.4c0,0-0.1,0.3,0.2,0.3c-0.3,0.3-0.3,0.4-0.2,0.9c-0.1-0.2-0.1-0.9-0.5-0.9
	c0.3-0.1,0.1-0.3-0.1-0.4c-0.1,0.2-0.4,0.2-0.4-0.1c-0.2,0.1-0.3,0.5-0.1,0.6c0.1-0.2,0.1,0,0.1,0c0.2,0.2-0.4,0.1-0.4,0.1
	c-0.1,0.2-0.2,0.4-0.2,0.6c0,0.3,0.1,1.2,0.5,0.6c-0.1,0.1-0.1,0.2-0.2,0.3c0.1,0,0.2,0,0.2,0c-0.1,0-0.2,0.1-0.3,0.1
	c0.2,0.3,0.5-0.1,0.8-0.1c-0.4,0.2-0.9,0.4-1.1,0.7C26.6,12.7,27.2,13.2,27.2,13 M33.2,20.7c-0.1-0.2-0.4,0-0.5,0.1
	c0.5-0.3-0.2-0.6-0.5-0.3c0.4-0.3,0.3-1.4-0.2-1.1c0-0.4,0.3-0.6,0.4-1c0.1-0.3,0-0.8-0.1-1.1c-0.1-0.4-0.8-1.4-1.3-1.4
	c0.2,0.4-0.2,0.2-0.3,0.5c-0.1,0.3-0.1,0.9,0.2,0.9c-0.2,0.5,0.1,1,0.1,1.1c0,0,0,0.2,0,0.2C31,18.3,31,18,30.8,17.9
	c0,0.2-0.3,0.4-0.2,0.6c-0.1-0.2-0.1-0.4,0.1-0.5c-0.6,0.6-0.8-0.9-1.3-1c0,0.2,0,0.5-0.1,0.7c0.2-0.2,0.5,0.4,0.5,0.5
	c-0.1-0.2-0.2-0.2-0.4-0.1c0.1,0.1,0.1,0.3,0.1,0.5c0.2,0.1,0.3,0.2,0.3,0.4c0-0.1-0.1-0.2-0.2-0.3c0,0,0,0.1-0.1,0.1
	c-0.1-0.1-0.3-0.8-0.5-0.8c-0.3,0-0.2,0.5-0.1,0.6c-0.3-0.2-0.4,0.1-0.4,0.3c0.2-0.2,0.7,0.8,1,0.8c0.4,0.1,0.1,0,0.4-0.2
	c0,0,0.1-0.5,0.2-0.5c0.1,0.1,0.1,0.3,0.1,0.5c0.1-0.1,0.2-0.2,0.2-0.4c0.1,0.2,0.1,0.5,0.2,0.7c0.1,0,0.3-0.1,0.4-0.2
	c-0.1,0.3,0.3,0.6,0.5,0.7c-0.3,0.1-0.5-0.3-0.7-0.5c-0.1,0.3-0.4,0.3-0.2,0.8c0.1,0.3,0.5,0.6,0.7,0.2c0,0.3-0.4,0.4-0.1,0.6
	c0.2,0.2,0.4-0.2,0.5,0c0,0.1-0.2,0.3-0.2,0.4c0.2,0,1,0,0.9-0.4c0.3,0.2,0.2,0.6,0.5,0.8c0.2-0.3,0.4-0.7,0.3-1.1
	c0.3,0.5,0.5,0.8,1.2,0.4c-0.4,0.6-1.4,0.9-1.1,1.9c0.7-0.2,1.4-1,1.3-1.7c0.6,0.6,1.4-1.3,0.5-1c0.3-0.2-0.5,0-0.7,0.2
	C34.1,21.1,33.4,20.9,33.2,20.7 M33.2,28.4c-0.2-0.6-0.7-0.8-1.3-0.6c0,0,0,0.1,0.1,0.1c0-0.1-0.1-0.1-0.2-0.1c0,0.1,0,0.2,0.1,0.3
	c-0.2,0-0.4,0.1-0.6,0c0,0.2,0,0.4,0.2,0.3c-0.6,0.5,0.3,0.7,0.6,0.8c0.2,0.1,0.3,0.3,0.5,0.3c0.1,0,0.5-0.3,0.6-0.2
	c0.1,0.1-1,0.7-1.1,0.9c-0.4,0.7,0.4,0.7,0.7,0.4c0.1-0.2,0.3-0.2,0.5-0.2c-0.2,0.1-0.2,0.3-0.5,0.5c-0.3,0.1-0.7,0.2-1.1,0.1
	c0,0.3,0.1,0.3-0.2,0.2c0.1,0,0,0,0.1,0c0-0.3-0.6-0.3-0.6,0.2c0.6,0.6,0.7,0.3,1.4,0.2c0.3,0,1.6-0.8,1.7-0.6c0,0-0.3,0.2-0.2,0.3
	c0.3,0.4,1.1-0.5,1.2-0.7c-0.2,0-0.4,0.1-0.6,0.2c0.1-0.1,0.4-0.3,0.3-0.5c0.2-0.1,0.3,0.3,0.5,0.1c0.2-0.2,0-0.4-0.1-0.3
	c0,0,0.1-0.1,0.1-0.1c0.1,0,0.3,0.1,0.1-0.2c-0.1-0.1-0.5-0.4-0.7-0.5c-0.3-0.2-0.7-0.1-1-0.3C33.4,28.8,33.4,28.5,33.2,28.4
	 M23.9,17.1c0.1,0.2,0.2,0.2,0.4,0.1c0,0.3,0.4,0.4,0.3,0.1c0.1,0.2,0.4,0.4,0.6,0.4c0,0-0.1,0-0.1,0c0.1,0.1,0.6,0.9,0.7,0.4
	c0.1,0,0.1,0.1,0.2,0.1c0,0-0.1-0.1-0.1-0.1c0.1,0,0.3,0.1,0.5,0c0,0-0.1,0-0.1,0c0.6-0.4-0.3-0.3-0.3-0.6c0.3,0.1,0.7,0,0.7-0.4
	c-0.1,0-0.4,0.1-0.4,0c0.3-0.1,0-0.1,0.2-0.2c-0.4-0.1-0.1-0.2-0.4-0.3c0.5-0.1,0.2,0.2,0.6,0.1c-0.1,0.1-0.1,0.2,0.1,0.3
	c0.2-0.2,0.3-0.5-0.1-0.6c0,0,0.1,0.1,0.1,0.1c-0.3,0.1-0.3,0-0.6-0.1c0.5,0,0-0.4,0.1-0.4c-0.1,0-0.8,0.4-0.4,0.4
	c-0.1,0-0.2,0-0.2,0.2c0-0.1-0.1-0.2-0.3-0.2c0.1-0.1,0.1-0.3,0.1-0.4c-0.2,0.2-0.4,0.4-0.4,0.7c-0.2-0.1-0.4-0.4-0.7-0.2
	c-0.2,0.1-0.1,0.4-0.2,0.5C24,16.9,24,17.1,23.9,17.1 M24.5,21.1c0.7,0.3-0.1,1.5,1,1.5c0.9,0-0.1-0.4-0.5-0.5
	c0.1,0,0.5,0.1,0.3-0.1c0.3,0.3,0.3-0.2,0.2-0.4c-0.1-0.3-0.5-0.3-0.5-0.5c0.1,0.3,0.6,0.1,0.7,0c0.5-0.5,0-0.7-0.3-1
	c0.2,0.1,0.3,0,0.4-0.1c-0.1,0.1-0.2,0.1-0.3,0c0.1,0,0.1,0,0.2,0c0-0.1-0.3-0.3-0.4-0.3c0.1,0,0.1,0,0.2,0
	c-0.1-0.6-0.9-0.2-0.9,0.1C24.6,20.2,25.1,20.9,24.5,21.1 M41.7,62.9c0.3,0.4,0.7,0.8,0.9,1.3c0.1-0.1,0.2-0.2,0.4-0.3
	c-0.1,0.2-0.2,0.3-0.2,0.6c0.2-0.1,0.4-0.1,0.5,0.1c0-0.1-0.1-0.2,0.2-0.3c0.2-0.2,0.4-0.3,0.5-0.5c0.4-0.3,0.7-0.7,1-1.1
	c-0.4-0.1-0.7,0.1-1,0.2c0-0.2-0.1-0.9-0.5-0.7c0.5-0.6-0.7-0.6-1-0.5c-0.2,0-0.4,0.1-0.6,0.3c-0.1,0.1-0.3,0.9,0.1,0.9
	C41.9,62.8,41.8,62.9,41.7,62.9 M30.1,38c0.3,0.7,1-1.1,1.5-1c-0.5-0.1-0.1,1.2-0.1,1.2c0,0.5-0.6,1.2,0.3,0.8
	c0.2-0.1,0.5-0.3,0.7-0.4c0.2-0.1,0.6-0.4,0.6-0.6c0-0.3-0.2-0.8-0.3-1.1c-0.1-0.5-0.2-1-0.3-1.5c-0.3,0-0.7,0.4-0.9,0.6
	c-0.1,0.1-0.3,0.6-0.4,0.6c0-0.3,0-0.5,0.1-0.8c-0.4,0.3-0.8,0.5-0.9,1C30.2,37.2,30.4,37.6,30.1,38 M33.2,34.8c0,0.1,0,0.1,0,0.2
	c0.4,0,0.7,0.1,0.9-0.2c0,0.4-0.5,0.3-0.8,0.4c-0.4,0.2-0.8,0.7-0.7,1.1c0.1,0.5,0.5,0.7,0.8,0.4c0.1-0.2,0-0.4,0.2-0.6
	c0.1-0.1,0.3,0,0.3-0.2c0,0,0,0.1,0,0.1c0.1-0.6,1.4-2.1,1.1-2.6C34.7,32.8,33.5,34.5,33.2,34.8 M40.5,55c0,0,1.1-0.5,1,0.1
	c0.2-0.1,0.2-0.3,0.4-0.5c0.3-0.3,0.7-0.5,1-0.9c0.2-0.3,0.6-0.8,0.5-1.2c0-0.1-0.3-0.2-0.3-0.3c-0.1-0.3,0.2-0.5,0.1-0.8
	c-0.9,0.4-1.2,0.8-1.7,1.7C41,53.6,40.9,54.6,40.5,55 M59.7,88.5c0.5,0,0.8,0.1,1.2,0.4c0.2,0.2,0.4,0.4,0.8,0.4
	c0.4,0,0.3-0.2,0.5-0.4c0.1-0.1,0.6-0.4,0.7-0.6c0,0-0.3-0.3-0.3-0.4c-0.2-0.1-0.4-0.1-0.6,0c0.1-0.2-0.3-0.5-0.4-0.2
	c-0.1-0.4-0.6,0.2-0.7,0.2c0.1,0,0.1,0.1,0.2,0.1c-0.3,0-0.1,0-0.3,0.1c0-0.1,0-0.1,0.1-0.2c-0.2,0-0.5,0.1-0.6,0.4
	C60.2,87.9,59.8,88.4,59.7,88.5 M24.7,18.6c0.3,0.6,0.4,0.5,1,0.7c-0.1-0.1-0.2-0.1-0.3-0.2c0.4,0.3,0.5-0.1,0.6-0.1
	c-0.1-0.1-0.1-0.2-0.3-0.2c0,0,0.1,0.1,0.1,0.1c-0.7-0.1-0.2,0-0.3-0.2c0,0.1,0.1,0.1,0.1,0.1c0,0,0-0.1,0-0.1
	c0.1,0.1,0,0.1,0.2,0.1c0,0-0.1-0.1-0.1-0.1c0-0.1,0.1-0.1,0.2-0.1c-0.1-0.1-0.3-0.3-0.3,0C25.4,18.3,25.1,18.3,24.7,18.6
	 M27.2,29.2c0.1,0.2,0.1,0.4,0.1,0.6c0.2-0.1,0.4,0,0.6-0.1c-0.1,0,0.2-0.3,0.2-0.3c0.1-0.2,1.1-0.5,0.6-0.7
	C28.4,29.2,27.6,28.7,27.2,29.2 M24.1,23.8c0-0.1-0.4,0.8,0,0.6c0.1,0,0.9-0.1,0.6-0.5C24.8,24,24.9,24,25,24c0,0-0.3-0.1-0.3-0.2
	c0-0.2,0,0.1,0-0.1l0.2,0.1c-0.2-0.1-0.1-0.6-0.4-0.6c0.1,0.3-0.1,0.5-0.4,0.5C24.1,23.7,24.2,23.7,24.1,23.8 M28.9,28.4
	c0,0,0.1,0.1,0.1,0.1c0.1-0.3,0.3,0,0.4-0.3c-0.1,0.3,0.6-0.1,0.6-0.4c0.2,0.2,0.8-0.8,0-0.5C29.6,27.4,29.3,28.2,28.9,28.4
	 M36.8,38.8c0.3,0.6,0.2,1.7,1.1,1.9c0.4,0.1,0.9-0.2,0.9-0.7c0-0.2-0.3-0.2-0.3-0.4c0-0.1,0.2-0.2,0.2-0.2
	c-0.1-0.2-0.2-0.3-0.4-0.4C38.8,38.7,37.2,36.5,36.8,38.8 M41,62.7c0.1,0.2,0.8,0.6,0.9,0.6C41.7,63.1,41.4,62,41,62.7 M37.9,35.7
	c0.1,0.3,0.4,0.3,0.5,0.5c0.1,0.3,0.2,0.5,0.1,0.9c0.4-0.2,0.3,0.5,0.6,0.5c0.2,0,0.1-0.8,0-1C39,36.4,38.2,35.1,37.9,35.7
	 M31.5,34.3c0.3-0.1,0.3,0.1,0.5-0.2c0.1-0.1,0.4-0.7,0.2-0.9C32,33.5,31.8,34,31.5,34.3 M31.8,23.8c-0.1,0-0.2-0.1-0.2-0.1
	c0.4-0.1-0.9-0.9-1,0.1C30.5,24.6,31.6,24.5,31.8,23.8 M34.6,38.2c0,0.1,0,0.2,0.1,0.3c0.1-0.1,0.4-0.9,0.2-0.9
	C34.7,37.6,34.6,38.1,34.6,38.2 M33.2,19.9c0.1-0.3-0.2-0.7-0.1-1c0-0.2,0.5-0.5,0.2-0.7c0,0.2-0.2,0.3-0.1,0.5
	C32.1,18.4,32.9,20.5,33.2,19.9 M35.6,29.7c0.4-0.1,0.9-0.7,1-1.1C36.3,28.7,35.8,29.3,35.6,29.7 M23.8,24.5c0.1,0,0.1,0.1,0.2,0.1
	c0,0.1,0,0.1-0.1,0.1c0.1,0.2,0.3,0.1,0.4,0c-0.1,0-0.1,0-0.2,0c0.1-0.1,0-0.1,0.3-0.1c-0.1-0.1-0.4-0.2-0.5-0.2
	C23.8,24.4,23.8,24.5,23.8,24.5 M63.2,87.3c0.1,0.1,0.3,0.1,0.4,0.1c0,0-0.4-0.4-0.1-0.5c-0.1,0.1-0.3,0.2-0.4,0.3
	C63.2,87.3,63.2,87.3,63.2,87.3 M27.2,13.9c0.3-0.7-0.6-0.1-0.5,0.1C26.9,13.8,27,13.8,27.2,13.9 M35.7,30.6c0.1,0,0.2,0,0.2,0.1
	c0.2-0.2,0.3-0.4,0.4-0.6C36.1,30.3,35.8,30.3,35.7,30.6 M31.6,29.5c0.2,0.1,0.5,0.3,0.7,0.1C32.3,29.6,31.8,29,31.6,29.5
	 M33.2,17.8c0,0.1,0.1,0.2,0.1,0.3c0-0.2,0.2-0.6,0-0.8C33.3,17.4,33.4,17.6,33.2,17.8 M32,25c0.2,0.3,0.7,0,0.6-0.3
	C32.4,24.3,32,24.8,32,25 M35.3,31.5c0,0.1,0.2,0.2,0.2,0.3c0.1-0.2,0.1-0.4,0.2-0.6c-0.2,0.2-0.2,0.2-0.1,0.1
	C35.5,31.2,35.3,31.3,35.3,31.5 M62.6,87.2c0,0.3,0.3,0.3,0.5,0.1C63,87,62.8,86.7,62.6,87.2 M35.2,32.3c0,0.1,0.1,0.2,0.2,0.3
	c0-0.3,0.2-0.6,0-0.9C35.3,31.9,35.3,32.1,35.2,32.3 M26,18.3c0.1,0,0.1,0.1,0.1,0.2c0.2,0,0.2-0.3,0-0.3C26.1,18.6,26.1,18,26,18.3
	 M23.2,26c0.2,0.1,0.4-0.1,0.2-0.3C23.3,25.7,23.2,25.9,23.2,26 M24.8,17.7c0.1,0.1,0.2,0.4,0.3,0.5c0-0.1-0.1-0.8-0.2-0.4
	C24.9,17.8,24.7,17.5,24.8,17.7 M34.7,32.9C35.5,33.5,35,31.8,34.7,32.9 M25.6,18.3c0,0.1,0.3,0.3,0.5,0.3
	C25.8,18.1,25.9,18.2,25.6,18.3 M25.9,15.9C26.6,16.2,26.2,15,25.9,15.9 M31.5,25.6c0.1,0.1,0.1,0,0.3,0.1
	C32.1,25.4,31.6,25.6,31.5,25.6 M29.6,23.2c0.3,0.1,0.4-0.1,0.7-0.1C30.2,22.9,29.7,23.1,29.6,23.2 M31.7,22.2
	c0.2,0.2,0.3,0.2,0.3,0C32.3,22,31.9,21.9,31.7,22.2 M33.9,26.1c0.2,0.1,0.3,0.1,0.5,0C34.2,26,34,25.9,33.9,26.1 M31.6,34.5
	c0.1,0,0.2,0.1,0.1,0.2c0.1-0.1,0.2-0.2,0.3-0.2C32,34.3,31.7,34.4,31.6,34.5 M31.4,29.5c0.2,0.2,0.2,0.1,0.3-0.1
	C31.6,29.3,31.4,29.3,31.4,29.5 M33.2,20.6c0.2,0.3,0.6,0,0.4-0.3C33.4,20,32.9,20.3,33.2,20.6 M24.6,16.4c0.2,0.2,0.3,0.1,0.4-0.1
	C24.8,16.3,24.7,16.3,24.6,16.4 M25.3,22.9c0,0.2,0,0.4,0.2,0.2c0,0-0.1,0-0.1-0.1c0.1,0,0.2-0.1,0.2-0.3
	C25.4,22.7,25.3,22.7,25.3,22.9 M25.8,19.4c0,0,0.1,0,0.1,0.1c0,0,0.1-0.3,0.1-0.3C26,19.2,25.9,19.3,25.8,19.4 M30.5,31.3
	c0.2,0.2,0.4-0.1,0.4-0.4C30.6,30.9,30.7,31.1,30.5,31.3 M39.5,37.4c0.3,0.1,0.4-0.2,0.3-0.5C39.6,36.9,39.5,37.2,39.5,37.4
	 M25.6,15.2C26.1,15.7,26,14.6,25.6,15.2 M25,23.6c0.1,0,0.2,0.1,0.2,0.1C25.2,23.5,25.1,23.6,25,23.6 M35.5,32.4c0,0,0,0.1,0,0.1
	c0.1-0.1,0.1-0.4,0-0.3C35.6,32.3,35.5,32.4,35.5,32.4 M39.4,37.7c0.1,0.1,0.2,0.1,0.2-0.2C39.5,37.6,39.5,37.6,39.4,37.7
	 M30.1,23.3c0.1,0,0.2,0,0.3,0C30.3,23.2,30.2,23.2,30.1,23.3 M25.4,15.8c0.1,0.1,0,0.2,0.2,0.1C25.6,15.7,25.5,15.8,25.4,15.8
	 M23.6,25.4c0.1,0,0.2,0,0.3-0.1C23.7,25.3,23.7,25.4,23.6,25.4 M38.2,36.9c0,0.1,0,0.2,0.1,0.2c0-0.1,0-0.2-0.1-0.3
	C38.2,36.8,38.3,36.8,38.2,36.9 M25.4,16.4c0.1,0,0.1,0,0.2,0.1C25.5,16.3,25.5,16.3,25.4,16.4 M26.6,15.2c0.1,0.1,0.1,0.1,0.1,0.2
	c0-0.1,0-0.2,0-0.3C26.7,15.2,26.7,15.2,26.6,15.2 M28.3,14.7C28.4,14.9,28.3,14.7,28.3,14.7 M26.9,16.5
	C27,16.5,26.9,16.3,26.9,16.5 M26.6,15.5c0.1,0,0.2,0.1,0.2,0.1C26.8,15.5,26.7,15.4,26.6,15.5 M26.1,16.7c0.1,0,0,0.1,0.1,0
	C26.1,16.6,26.1,16.7,26.1,16.7 M25.7,19.4C25.8,19.6,25.8,19.3,25.7,19.4 M23.2,26.2c0.1,0.1,0.2,0.1,0.3,0
	C23.4,26.2,23.3,26.2,23.2,26.2 M25.4,18.2C25.5,18.3,25.5,18.1,25.4,18.2 M25.2,23.6c0,0,0.1,0,0.1,0
	C25.3,23.3,25.3,23.6,25.2,23.6 M25.7,21.7c0.1,0,0.1,0.1,0.1,0C25.7,21.6,25.7,21.7,25.7,21.7 M26.4,16.5c0,0,0.1,0,0.1-0.1
	C26.4,16.4,26.4,16.5,26.4,16.5 M26.4,17C26.5,17,26.6,17.1,26.4,17C26.4,16.9,26.5,17,26.4,17 M24.9,23.8c0.1,0,0,0.1,0.1,0.1
	C25,23.7,25,23.8,24.9,23.8 M24.5,24.7C24.5,24.7,24.6,24.8,24.5,24.7C24.5,24.6,24.5,24.7,24.5,24.7 M27.2,15.9L27.2,15.9
	C27.2,15.9,27.2,16,27.2,15.9 M25.6,19.4c0,0,0,0.1,0.1,0C25.7,19.4,25.6,19.4,25.6,19.4 M27,15.9l0.1,0C27.1,15.9,27,15.9,27,15.9
	 M25.1,23.9l0.1,0C25.1,23.8,25.1,23.8,25.1,23.9 M26,18.4L26,18.4C26,18.4,26,18.4,26,18.4"/>
<path class="st0" d="M36.7,50.7c-0.7-0.3-0.2-1.4-0.8-1.9c-0.5-0.4-1.7,0-2,0.5c0-0.2,0-0.2-0.1,0c0,0,0.1-0.2,0-0.1
	c0.2-0.1,0-0.2,0.2-0.6c0.3-0.4,1-0.5,1-1.2c0-0.2-0.2-0.8-0.4-0.8c-0.3,0,0.3,0.8,0.3,0.9c-0.7-0.8-1-1.3-1.4-2.1
	c-0.1-0.2-0.1-0.5-0.1-0.6c0-0.1-0.3-0.2-0.3-0.2c-0.2-0.3,0-0.6-0.1-1c-0.1-0.8-1-0.9-1.7-0.9c-1,0-1.7,0.5-2.6,0.7
	c0.1,0,0.1,0,0.2,0c-0.4-0.1-0.9-0.1-1.3-0.3c0,0.2-0.3,0.9-0.1,0.9c-0.4-0.1-0.6,0.6-1,0.6c-0.2,0-0.4-0.1-0.6-0.1
	c-1.4,0.6-0.9,2.6-2.1,3.3c-0.5,0.2-1.5-0.1-1.8,0.4c-0.4,0.5,0.7,1.2,1.1,0.8c0.2,0.5-2.3,1.7-2.7,1.7c0.2,0.5,0.7,0.8,1,1.1
	c0.3,0.4,0.5,1,0.9,1.3c0.3,0.2,0.7,0.3,1.1,0.5c0.6,0.4,0.9,0.4,1.6,0.1c0,0.1,0,0.2-0.1,0.2c1.7,0.1,1.2-1.3,1.8-2.3
	c0.9-1.4,1.6,1,2.1,1.6c0.2,0.2,0.4,0.3,0.5,0.5c0.1,0.2,0.1,0.5,0.3,0.6c0.3,0.4,0.4,0.4,0.9,0.3c0.4-0.1,0.7-0.3,1.1-0.4
	c0.3,0,1,0.2,1.3,0.5c-0.1,0-0.1,0.1-0.2,0.1c1,1.1,1.4-2.1,1.8-2.5c0,0.1,0,0.2-0.1,0.3c0.2,0.3,1-0.2,1,0.3
	c0.2-0.4,0.7-0.5,0.7-1.1c0-0.8-0.4-0.2-0.8-0.4c0.3-0.1,0.3-0.7,0.3-1c0-0.2-0.3-0.3-0.2-0.4c0,0,0.2,0,0.3,0
	c-0.2,0-0.5-0.2-0.6-0.3c0.3-0.3,0.9-0.5,0.8,0.2c0.2-0.2,0.5,0.6,0.2,0.7c0.4,0.1-0.1,0.2,0,0.4c0,0.4,0.1,0.6,0.4,0.9
	c0.3-0.4,0.4-1.1,0.3-1.6C36.5,50.7,36.7,50.7,36.7,50.7z"/>
</svg>
