<?xml version="1.0" encoding="utf-8"?>
<!-- Generator: Adobe Illustrator 23.0.6, SVG Export Plug-In . SVG Version: 6.00 Build 0)  -->
<svg version="1.1" id="Layer_1" xmlns="http://www.w3.org/2000/svg" xmlns:xlink="http://www.w3.org/1999/xlink" x="0px" y="0px"
	 viewBox="0 0 100 100" style="enable-background:new 0 0 100 100;" xml:space="preserve">
<style type="text/css">
	.st0{fill:#0094D6;}
</style>
<path class="st0" d="M44.1,8.2c-0.1,0.2-0.2,0.3-2,0.3c-2.3,0-2.7,0.1-3.2,1.1c-0.5,1-0.6,1-1.3,0.5c-0.5-0.4-0.6-0.5-1.4-0.4
	c-0.9,0-0.9,0.1-1,0.5c0,0.2-0.1,0.5-0.2,0.6c-0.2,0.2-0.1,1.1,0.2,1.5c0.4,0.5,0.1,0.5-0.6-0.1c-0.6-0.5-1-0.6-1.4-0.1
	c-0.4,0.4-0.5,0.8-0.1,1.3c0.3,0.4,0.4,1.7,0.1,1.5c-0.1,0-0.1-0.2-0.1-0.4c0-0.7-1.2-1-2-0.4c-0.2,0.2-0.5,0.3-0.6,0.3
	c-0.3,0-0.7-0.5-0.7-0.9c0-0.7-0.8-1.1-1.2-0.6c-0.2,0.1-0.2,0.5-0.2,1.1c0,0.8,0,0.9-0.5,1.4c-0.7,0.7-1.2,1.5-1.2,2
	c0,0.2-0.1,0.4-0.1,0.3c-0.1,0-0.1-0.3-0.1-0.5c0-0.5-0.5-1.2-0.9-1.2c-0.3,0-1.1-0.4-1.3-0.6c-0.1-0.1-0.2-0.6-0.2-1.1
	c0-0.9-0.1-1-0.3-0.9c-0.2,0-0.5,0.2-0.7,0.3c-0.2,0.1-0.6,0.5-0.9,0.7c-0.6,0.4-0.6,0.4-0.5,1.1c0.1,0.7,0.1,0.7-0.6,1.4
	c-0.7,0.7-0.8,0.7-1.2,0.5c-0.6-0.2-1.8-0.2-1.9,0c0,0.1-0.3,0.1-0.4,0.1c-0.2,0-0.4,0.1-0.4,0.1c0,0.1-0.3,0.1-0.5,0.1
	s-0.5-0.1-0.5-0.1c-0.1-0.2-0.8-0.2-1.3,0.2c-1,0.6-1.1,1.2-0.2,2c0.5,0.5,0.6,0.7,0.6,1.1c0,0.4,0.1,0.6,0.4,1l0.4,0.4L15,22.9
	c-0.7,0.7-0.9,0.8-1.5,0.8c-0.8,0-1,0.1-1,0.7c0,0.5,0.4,0.9,1.9,2.1c0.5,0.4,0.5,0.5,0.4,0.7c-0.1,0.1-0.2,0.4-0.4,0.6
	c-0.1,0.2-0.3,0.5-0.5,0.7c-0.2,0.2-0.2,0.6-0.2,1.2v0.9l0.9,0.9l0.9,0.9h1.5h1.6l-0.3,0.6c-0.2,0.4-0.4,0.8-0.6,1
	c-0.2,0.3-0.2,0.6-0.2,1l0,0.6l1,0c0.9,0,1.1,0,1.8-0.4c1-0.5,1.3-0.8,1.6-1.6c0.4-0.7,0.5-0.9,1.1-1c0.3-0.1,0.4-0.2,0.5-0.5
	c0.1-0.5,0.4-0.8,1.2-1.4c0.5-0.3,0.7-0.4,0.8-0.3c0.1,0.1,0.3,0.2,0.4,0.2c0.3,0,0.7,0.2,1.3,0.6c0.2,0.1,0.6,0.3,0.9,0.3
	c0.5,0,0.7,0.1,1.3,0.8c1.1,1.2,1.8,1.5,2.6,1.5c0.6,0,0.8,0.1,1.3,0.6c0.3,0.3,0.5,0.7,0.5,0.9c0,0.2,0.1,0.4,0.1,0.4
	c0.1,0,0.1,0.5,0.1,1c0,0.8,0.3,1.7,0.9,2.5c0.4,0.6,0.5,0.9,0.5,1.8c0,0.5-0.1,1-0.2,1.1c-0.1,0.1-0.1,0.3-0.1,0.5
	c0,0.3,0.1,0.4,0.9,0.4l0.8,0l0,0.5c0,0.5,0.1,0.5,0.6,0.7c0.4,0.1,0.6,0.3,0.9,0.6c0.2,0.3,0.4,0.5,0.5,0.5c0.3,0,0.8,0.7,0.8,1
	c0,0.1-0.1,0.3-0.2,0.4c-0.1,0.1-0.2,0.3-0.2,0.5c0,0.3,0.1,0.3,1.4,0.3c1.2,0,1.4,0,1.7,0.4c0.2,0.2,0.6,0.7,0.8,1.2
	c0.5,0.9,0.8,1.2,1.1,1.1c0.4-0.2,1.9,1.1,1.9,1.6c0,0.4,0.6,1,1.3,1.4c0.3,0.1,0.7,0.6,1,1c0.5,0.6,0.7,0.8,1.1,0.8
	c0.9,0.1,1.1,0.2,1.1,0.5c0,0.2,0.2,0.3,0.3,0.3c0.1,0,0.2,0.1,0.2,0.2c0,0.3,0.5,0.7,0.8,0.7c0.1,0,0.5-0.2,0.8-0.4
	c0.5-0.3,0.6-0.4,0.8-0.2c0.1,0.1,0.4,0.3,0.7,0.3c1,0.2,1.1,0.2,1.1-0.1c-0.1-0.7,0.9-0.1,1.7,1.1c0.9,1.3,0.9,1.3,1,1.9l0.1,0.5
	l1,0c0.8,0,1,0.1,1.2,0.3c0.3,0.4,0.3,0.9,0,1.1c-0.3,0.3-0.3,0.4,0.4,0.6c0.7,0.2,1,0.1,1-0.2c0-0.1,0.2-0.3,0.5-0.5l0.5-0.3
	l0.7,0.7c0.6,0.6,0.7,0.8,0.7,1.3c0,0.3-0.1,0.6-0.1,0.6c-0.2,0.1-0.2,0.8,0.1,1c0.1,0.1,0.4,0.2,0.6,0.2c0.5,0,1.1,0.4,1.6,0.8
	c0.3,0.3,0.5,0.4,1.2,0.4c0.5,0,0.9-0.1,1-0.2c0.2-0.2,1.4,0.8,1.4,1.3c0,0.2,0.1,0.4,0.1,0.4c0.1,0,0.1,0.4,0.1,0.9
	c0,0.7,0.1,0.8,0.5,1.3c0.7,0.6,1.3,1.8,1.3,2.5c0,0.3,0.1,0.6,0.1,0.6c0.1,0,0.1,0.3,0.1,0.5c0,0.3,0.2,0.6,0.6,1.1
	c0.3,0.4,0.6,0.7,0.6,0.9c0,0.3-0.5,0.7-0.9,0.7c-0.6,0-1.3,0.5-1.4,0.9c0,0.2,0,0.6,0.1,0.8c0.3,0.8,0.2,1.6-0.2,2
	c-0.4,0.3-0.5,0.4-1.2,0.4c-0.6,0-0.9,0.1-1.2,0.3c-0.3,0.2-0.4,0.3-0.6,0.1c-0.1-0.1-0.4-0.1-0.5-0.1c-0.3,0-0.4,0.1-0.4,0.6
	c0,0.5-0.1,0.6-0.5,0.6c-0.2,0-0.6-0.1-0.8-0.3c-0.7-0.6-1.5-0.4-2.7,0.9L62.6,83H61c-1.4,0-1.7,0-2.3,0.4c-0.7,0.3-0.7,0.4-0.9,0.1
	c-0.1-0.1-0.3-0.2-0.6-0.2c-0.3,0-0.5-0.1-0.5-0.3c-0.1-0.2-0.2-0.3-0.6-0.2c-0.5,0-0.5,0-0.6-0.4c-0.1-0.4-0.1-0.4-0.7-0.5
	c-0.9-0.1-1.3,0.2-1.5,0.9c-0.2,0.6-0.2,0.6-0.8,0.6c-0.6,0-0.6,0-0.8-0.5c-0.1-0.3-0.2-0.5-0.3-0.6c-0.1,0-0.6,0.4-1.1,0.9
	c-0.9,0.8-1,1.1-1,1.5c0,0.3-0.1,0.6-0.1,0.7c-0.2,0.3,0,0.8,0.8,1.7l0.8,0.9l0.9-0.2c1-0.2,1.4-0.1,2.7,0.8
	c0.9,0.7,1.9,1.2,2.4,1.2c0.2,0,0.5,0.2,0.7,0.4c0.5,0.6,1.2,0.8,2.7,0.8c1.5,0,1.9,0.2,2.5,1.5c0.6,1.1,1.3,1.7,2.3,1.7
	c0.4,0,0.7-0.1,0.8-0.1c0.1-0.2,0.8-0.2,1,0c0.1,0.1,0.3,0.2,0.6,0.3c0.5,0.2,0.6,0.1,0.6-0.8c0-0.6,0.2-1,0.9-1.8
	c0.3-0.4,0.5-0.7,0.5-0.8c0-0.1-0.3-0.5-0.6-0.8c-0.3-0.4-0.5-0.6-0.5-0.6c0.5,0.1,0.7-0.2,0.3-0.4c-0.7-0.3-1.2-1.3-0.8-1.6
	c0.1,0,0.1-0.3,0.1-0.5s0.1-0.7,0.3-1c0.2-0.3,0.3-0.6,0.3-0.8c0-0.1,0.1-0.3,0.1-0.4c0.1,0,0.1-0.2,0.1-0.3s0.3-0.9,0.7-1.6
	c0.7-1.3,0.7-1.4,0.7-0.9c0.1,1.2,0.9,1.9,2.1,1.9c0.9,0,1.6-0.4,1.7-0.9c0-0.2,0.1-0.4,0.2-0.5c0.1,0,0.1-0.2,0.1-0.4
	c0-0.7,0.8-1.8,1.5-2.1c0.4-0.2,0.7-0.4,0.8-0.5c0.2-0.3,0.1-2.5-0.1-2.7c-0.3-0.3,1.2-1.6,2-1.6c0.1,0,0.3-0.1,0.4-0.1
	c0-0.1,0.2-0.1,0.4-0.1c0.3,0,1-0.4,1.2-0.7c0.1-0.1,0.1-0.5,0.1-1c0-0.6-0.1-0.9-0.3-1.2c-0.2-0.2-0.3-0.6-0.3-1.2
	c0-0.8-0.1-0.8-0.5-0.9c-0.2-0.1-0.7-0.4-1.1-0.7c-0.5-0.5-0.7-0.5-1.3-0.5c-0.5,0-0.8-0.1-1.1-0.4c-0.5-0.5-0.5-0.7-0.1-1.2
	c0.2-0.3,0.3-0.6,0.3-1.1c0-0.6,0.1-1,0.9-2.4c0.5-0.9,1-1.7,1.1-1.8c0.3-0.2,0.6,0,1.7,0.7c0.6,0.4,0.7,0.4,2.2,0.4
	c1.4,0,1.6,0,1.8,0.2c0.4,0.5,0.6,0.9,0.6,1.3c0,1,1.7,2.4,2.7,2.3c0.4,0,0.4-0.1,0.5-0.9c0-0.6,0.1-1,0.3-1.2
	c0.2-0.2,0.3-0.6,0.3-1.1c0-0.6-0.1-0.8-0.7-1.4c-0.4-0.4-1.1-0.9-1.6-1.2c-1-0.5-1.1-0.6-1.3-1.3c-0.1-0.2-0.3-0.5-0.6-0.6
	c-0.2-0.1-0.6-0.3-0.7-0.3c-0.1-0.1-0.5-0.1-0.7-0.1c-0.2,0-0.5-0.1-0.5-0.1c0-0.1-0.3-0.1-0.5-0.1c-0.5,0-0.9-0.2-1.6-0.8
	c-0.6-0.6-1.8-1.2-2.2-1.2c-0.1,0-0.3-0.1-0.4-0.1c0-0.1-0.3-0.1-0.6-0.1c-0.3,0-0.5-0.1-0.6-0.1c0-0.1-0.3-0.1-0.6-0.1
	c-0.3,0-0.5-0.1-0.6-0.1c0-0.1-0.3-0.1-0.6-0.1c-0.3,0-0.5-0.1-0.6-0.1c0-0.1-0.2-0.1-0.4-0.1c-0.2,0-0.4-0.1-0.4-0.1
	c0-0.1-0.2-0.1-0.4-0.1c-0.3,0-1.5-0.6-1.9-0.9c-0.4-0.3-0.2-0.6,0.7-1.6c0.7-0.7,0.9-1,0.9-1.4c0-0.7-0.6-1.2-1.4-1.2
	c-0.4,0-0.7,0.1-0.8,0.1c0,0.1-0.4,0.1-0.7,0.1c-0.4,0-0.7,0.1-0.7,0.1c-0.1,0.1-0.9,0.1-2,0.1c-2.1,0-2.5-0.1-3.2-0.8
	c-0.2-0.2-0.4-0.4-0.5-0.4c-0.1,0-0.2-0.1-0.3-0.3c-0.1-0.2-0.5-0.4-0.8-0.6c-0.8-0.3-3.2-2.6-3.7-3.5c-0.4-0.8-2.1-5.7-2-6
	C56.2,38,55,37,54,36.6c-1.7-0.7-6.1-3.9-6.6-4.8c-0.1-0.3-0.4-1.3-0.6-2.2c-0.3-1.6-0.3-1.6-0.1-1.9c0.2-0.2,0.4-0.3,0.5-0.3
	c0.1,0,0.4-0.1,0.6-0.3c0.3-0.2,0.4-0.4,0.4-0.8c0-0.7-0.2-1-0.8-1.4c-0.3-0.2-0.5-0.4-0.4-0.5c0.1-0.3-0.2-1-0.5-0.9
	c-0.3,0.1-0.3-0.4-0.1-1c0.1-0.4,0.2-0.5,0.8-0.5c0.5-0.1,1-0.2,1.8-0.8c0.7-0.5,1.3-0.8,1.5-0.8c0.6,0,0.7-0.1,0.8-0.8
	c0.1-0.5,0.1-0.5,0.8-0.5c0.5,0,0.7,0.1,0.9,0.3c0.2,0.3,0.2,0.3,0.6-0.1l0.4-0.5l0.5,0.4c0.3,0.3,0.5,0.5,0.5,0.8
	c0,0.4,0.1,0.4,0.4,0.4c0.2,0,0.5-0.1,0.6-0.2c0.2-0.3,0-0.6-1.1-1.4c-0.6-0.4-0.8-0.6-0.7-0.8c0.1-0.1,0.1-0.4,0.2-0.7
	c0.1-0.4,0.1-0.4-0.4-0.4l-0.4,0.1l0.6-0.5c0.8-0.8,0.8-1.4-0.2-1.4c-0.3,0-0.7-0.1-0.9-0.2c-0.3-0.1-0.3-0.2,0.1-0.4
	c0.2-0.2,0.4-0.4,0.4-0.5c0-0.1,0.2-0.3,0.4-0.4c0.4-0.2,0.9-1,0.7-1.2c-0.1-0.1-1.1-0.2-2.3-0.3c-2.9-0.2-4.1-0.5-5-1
	c-0.4-0.2-0.8-0.4-0.8-0.4c-0.1,0-0.1-0.2-0.2-0.4c0-0.2-0.2-0.5-0.4-0.5c-0.4-0.2-0.5-0.9-0.2-1.1C46,8,45.8,7.9,45,7.9
	C44.3,7.9,44.1,7.9,44.1,8.2z"/>
<path class="st0" d="M27.1,57.5c-0.3,0.3-0.9,0.7-1.2,1c-0.9,0.8-2.6,1.8-3,1.8c-0.1,0-0.4-0.2-0.7-0.5c-0.6-0.6-1.1-0.6-1.1-0.1
	c0,0.2-0.2,0.6-0.3,0.9c-0.2,0.4-0.3,0.8-0.2,1.5l0,0.9l0.6,0.1c0.5,0.1,0.7,0.2,0.8,0.5c0.1,0.2,0.2,0.6,0.2,0.8
	c0,0.2,0.1,0.5,0.1,0.5c0.1,0,0.1,0.3,0.1,0.6c0,0.3,0.1,0.5,0.2,0.6c0.1,0.1,0.1,0.3-0.2,0.6c-0.2,0.3-0.3,0.6-0.3,1.2
	c0,0.7,0.1,0.7,0.5,0.8l0.4,0l-0.3,0.4c-0.2,0.3-0.3,0.6-0.3,1.2c0,0.5-0.1,1-0.3,1.3c-0.4,0.6-0.5,2.4-0.2,3c0.2,0.4,0.2,0.9,0,0.9
	c-0.1,0-0.1,0.1-0.1,0.1c0,0.1,0.2,0.1,0.5,0.1c0.6,0,0.9,0.3,0.9,0.9c0,0.9,1.1,1.1,2.3,0.5c0.9-0.5,0.9-0.5,0.9-1.4
	c0-0.4,0.1-0.7,0.1-0.8c0.1,0,0.1-0.3,0.1-0.5v-0.4l1,0.5c0.5,0.3,1,0.6,1.1,0.6c0.1,0.1,0.3,0.2,0.5,0.2c0.4,0,0.9-0.6,0.9-1.2
	c0-0.1,0.1-0.3,0.1-0.4c0.1,0,0.1-0.4,0.1-0.9c0-0.4,0.1-0.8,0.1-0.9c0.1-0.1,0.1-0.9,0.1-2.1c0-1.1,0.1-2,0.1-2.1
	c0.3-0.2,0.2-1-0.1-1.4c-0.4-0.5-0.4-1,0.3-1.7L32,64l0-1.2c0-1.2,0-1.2-0.4-1.3c-0.4,0-0.4-0.1-0.4-0.5c0-0.6-0.3-1-0.8-1
	c-0.2,0-0.4-0.1-0.4-0.1c0-0.1,0.2-0.1,0.4-0.1c0.4,0,0.8-0.4,0.8-0.8c0-0.4-0.9-1.3-1.3-1.3c-0.2,0-0.4-0.1-0.4-0.1
	c0-0.1-0.3-0.1-0.4-0.1c-0.2,0-0.4-0.1-0.4-0.1C28.3,56.9,27.7,57.1,27.1,57.5z"/>
</svg>
