<?xml version="1.0" encoding="utf-8"?>
<!-- Generator: Adobe Illustrator 23.0.6, SVG Export Plug-In . SVG Version: 6.00 Build 0)  -->
<svg version="1.1"
	 id="Layer_1" xmlns:cc="http://creativecommons.org/ns#" xmlns:dc="http://purl.org/dc/elements/1.1/" xmlns:inkscape="http://www.inkscape.org/namespaces/inkscape" xmlns:rdf="http://www.w3.org/1999/02/22-rdf-syntax-ns#" xmlns:sodipodi="http://sodipodi.sourceforge.net/DTD/sodipodi-0.dtd" xmlns:svg="http://www.w3.org/2000/svg"
	 xmlns="http://www.w3.org/2000/svg" xmlns:xlink="http://www.w3.org/1999/xlink" x="0px" y="0px" viewBox="0 0 100 100"
	 style="enable-background:new 0 0 100 100;" xml:space="preserve">
<style type="text/css">
	.st0{fill:#0094D6;}
</style>
<path class="st0" d="M26.6,2.2c-7,0-12.7,5.6-12.7,12.7v70.3c0,7,5.7,12.7,12.7,12.7h46.9c7,0,12.7-5.7,12.7-12.7V26.6v-0.1v-0.2
	v-0.1c-0.1-0.1-0.1-0.2-0.2-0.3L62.5,2.4c-0.1-0.1-0.2-0.2-0.3-0.2h-0.1c-0.1,0-0.2-0.1-0.2-0.1h-0.1H26.6z M26.6,4.1h34.2v10.8
	c0,7,5.7,12.7,12.7,12.7h10.8v57.7c0,5.9-4.8,10.8-10.8,10.8H26.6c-5.9,0-10.8-4.8-10.8-10.8V14.8C15.8,8.9,20.6,4.1,26.6,4.1z"/>
<g>
	<path class="st0" d="M28.1,44.9h7.2c1.8,0,3.1,0.4,4.1,1.3c1,0.9,1.5,2.1,1.5,3.7c0,1.6-0.5,2.8-1.5,3.7c-1,0.9-2.3,1.3-4.1,1.3
		h-4.2v6.4h-3V44.9z M34.9,52.6c2.1,0,3.1-0.9,3.1-2.7c0-0.9-0.3-1.6-0.8-2c-0.5-0.4-1.3-0.7-2.3-0.7h-3.8v5.4H34.9z"/>
	<path class="st0" d="M43.4,44.9h6c2.7,0,4.8,0.7,6.2,2.2c1.5,1.4,2.2,3.4,2.2,6c0,2.6-0.7,4.6-2.2,6c-1.5,1.4-3.6,2.2-6.2,2.2h-6
		V44.9z M49.3,58.9c3.8,0,5.6-1.9,5.6-5.8c0-3.8-1.9-5.7-5.6-5.7h-2.9v11.5H49.3z"/>
	<path class="st0" d="M60.9,44.9h10.7v2.4h-7.8v4.5h7.3v2.4h-7.3v7.1h-3V44.9z"/>
</g>
</svg>
