<?xml version="1.0" encoding="utf-8"?>
<!-- Generator: Adobe Illustrator 23.0.4, SVG Export Plug-In . SVG Version: 6.00 Build 0)  -->
<svg version="1.1" id="Layer_1" xmlns="http://www.w3.org/2000/svg" xmlns:xlink="http://www.w3.org/1999/xlink" x="0px" y="0px"
	 viewBox="0 0 100 100" style="enable-background:new 0 0 100 100;" xml:space="preserve">
<g>
	<g transform="translate(50 50) scale(0.69 0.69) rotate(0) translate(-50 -50)">
		<g style="fill: #fff">
			<path d="M92.1,29.2c-0.8,1.6-1.6,3.3-2.5,5c1.2,3.7,2,7.6,2.2,11.6h-9c-1,1.7-2,3.1-2.7,4.2h11.7c-0.4,7.6-2.7,14.7-6.4,20.8
				H71.8c1.3-4.3,2.2-9.1,2.7-14.2l-2.9-4.2c-0.1-0.1-0.4-0.6-0.9-1.3c-0.3,7.1-1.5,13.9-3.4,19.7H50V50h20
				c-0.7-1.1-1.6-2.5-2.7-4.2H50V25h6.1c-0.6-1.3-1-2.7-1.3-4.2H50V4.4c2.2,0.4,4.4,1.5,6.4,3.1c1.1-2.1,2.4-4.1,4.1-5.7
				C56.5,0.6,52.3,0,47.9,0C21.5,0,0,21.5,0,47.9c0,26.5,21.5,47.9,47.9,47.9c26.5,0,47.9-21.4,47.9-47.9
				C95.8,41.3,94.5,35,92.1,29.2z M34.5,6.1c-3.7,3.6-6.8,8.6-9.1,14.7h-12C18.8,14,26.1,8.8,34.5,6.1z M10.5,25H24
				c-1.9,6.2-3,13.3-3.1,20.8H4.1C4.5,38.2,6.8,31.1,10.5,25z M4.1,50h16.8c0.2,7.6,1.3,14.6,3.1,20.8H10.5
				C6.7,64.7,4.5,57.6,4.1,50z M13.4,75h12c2.3,6.1,5.4,11.1,9.1,14.7C26.1,87,18.8,81.8,13.4,75z M45.8,91.5
				c-6.3-1.1-11.9-7.4-15.7-16.5h15.7V91.5z M45.8,70.8H28.5c-2-6.2-3.3-13.3-3.5-20.8h20.8V70.8z M45.8,45.8H25.1
				c0.2-7.6,1.4-14.7,3.5-20.8h17.3V45.8z M45.8,20.8H30.1c3.8-9.1,9.5-15.3,15.7-16.5V20.8z M50,91.5V75h15.7
				C61.9,84.1,56.3,90.3,50,91.5z M61.3,89.7c3.7-3.6,6.8-8.6,9.1-14.7h12C77.1,81.8,69.7,87,61.3,89.7z"/>
			<path d="M58.5,18.6c0.3,2.2,0.9,4.2,2,6.1C65,35.5,75,50,75,50s10-14.5,14.5-25.3c1-1.9,1.7-3.9,2-6.1c0.1-0.7,0.2-1.4,0.2-2
				C91.7,7.5,84.2,0,75,0S58.3,7.5,58.3,16.7C58.3,17.3,58.4,17.9,58.5,18.6z M75,8.3c4.6,0,8.3,3.7,8.3,8.3S79.6,25,75,25
				c-4.6,0-8.3-3.7-8.3-8.3S70.4,8.3,75,8.3z"/>
		</g>
	</g>
</g>
</svg>
