<?xml version="1.0" encoding="utf-8"?>
<!-- Generator: Adobe Illustrator 23.0.6, SVG Export Plug-In . SVG Version: 6.00 Build 0)  -->
<svg version="1.1" id="Layer_1" xmlns="http://www.w3.org/2000/svg" xmlns:xlink="http://www.w3.org/1999/xlink" x="0px" y="0px"
	 viewBox="0 0 100 100" style="enable-background:new 0 0 100 100;" xml:space="preserve">
<style type="text/css">
	.st0{fill:#0094D6;}
</style>
<g>
	<path class="st0" d="M50,10.2C28,10.2,10.2,28,10.2,50S28,89.8,50,89.8S89.8,72,89.8,50S72,10.2,50,10.2z M50,87.8
		c-20.1,0-36.6-15.8-37.7-35.7l2.3,1.2l2.2,0.6l3.4,1.9l0.8,1l1.6,0.8l0.9,0.6v1l-0.7,1.4l0.7,1.2v1.2v0.7l0.8,0.7
		c0,0,1.2,1.4,1.4,1.6c0.2,0.2,1.7,1.4,1.7,1.4s0.9,0.7,1.1,0.9c0.2,0.2,1,1.4,1,1.7c0.1,0.3,0.7,2.3,0.7,2.5
		c0.1,0.2,0.4,0.9,0.7,1.7c0.3,0.8,0.7,1.8,0.7,2c0,0.2,0.7,2,0.7,2s0.6,1.4,0.8,1.8c0.2,0.4,0.8,1.4,1,1.8c0.3,0.4,0.8,1.3,1.4,1.6
		c0.6,0.3,1.4,0.9,1.4,0.9s0.8,0.3,0.7,0c-0.2-0.3-0.7-1-0.8-1.5c-0.2-0.5-0.3-1.2-0.3-1.4c-0.1-0.2-0.7-1.4-0.7-1.6
		s0.1-0.5,0.1-0.8c0-0.3,0.2-1,0.3-1.6c0.1-0.7,0.2-2,0.5-2.2c0.3-0.2,0.6-0.8,0.6-1s0.5-1,0.4-1.2c-0.1-0.3-0.3-2,0-2.2
		c0.4-0.2,1.5-1,1.7-1.2c0.2-0.2,0.5-1.6,0.5-1.8c0-0.2,0.5-2.5,0.5-2.8c0.1-0.3,0-1.4,0-1.8c0-0.4-0.6-0.8-1-1.2
		c-0.5-0.4-1.2-0.7-1.6-0.7c-0.3,0-2.5-0.8-2.6-1c-0.1-0.2-0.6-0.7-0.8-1c-0.2-0.4-1.4-1.4-1.9-1.5c-0.5-0.1-1.8-0.5-2-0.9
		c-0.2-0.4-0.3-0.8-0.5-0.8s-1.6,0.1-1.8,0.1c-0.2,0-0.7-0.1-1.2-0.3c-0.5-0.3-1.1-0.6-1.8-0.3c-0.7,0.3-1,0.7-1.2,0.8
		c-0.2,0.1-1,0.1-1.1,0.1c-0.1,0-2.1-0.2-2.1-0.2s0-1.1,0-1.3c0-0.2,0-1.2,0-1.2s-1.5-0.1-1.7-0.1s-0.3-0.7-0.3-1
		c0-0.4,0.8-0.8,0.4-1.1c-0.5-0.3-0.5-0.7-0.8-0.4c-0.3,0.3-0.5,0.5-1,0.9c-0.5,0.4-1.2,0.5-1.7,0.1c-0.5-0.5-0.9-1.9-1-2.2
		c-0.1-0.3-0.1-1,0.1-1.4c0.3-0.4,0.7-0.8,1.2-1c0.5-0.3,1.6-0.3,1.8-0.4c0.2-0.1,1.6-0.8,1.6-0.8l1.3,0.8c0,0,0.5,1.3,0.8,1.6
		c0.3,0.3,0.6,0.5,0.7,0.3c0.1-0.2-0.2-1.6-0.2-1.8c0-0.2-0.1-1.6,0.1-1.8c0.2-0.1,1.1-0.7,1.3-0.8c0.2-0.1,0.5-0.5,0.5-0.8
		c0.1-0.3,0.5-1.2,0.7-1.2c0.2-0.1,0-1,0.8-1.4c0.8-0.5,1.1-0.5,1.2-0.8c0.1-0.3,0.9-1,0.9-1s0.7,0.3,1,0c0.4-0.3,1.3-0.5,1.8-0.7
		c0.5-0.2,0.8,0,0.4-0.7c-0.4-0.7-0.5-1-0.8-1.2c-0.3-0.2-0.3-0.7-0.3-0.7s1.4,0.3,1.7,0c0.3-0.3,1.8-1.2,1.6-0.8
		c-0.1,0.3-1,1.8-1,1.8l1,0.6c0,0,1,1,1.2,0.4c0.2-0.7,0.5-1.1,0.1-1.6c-0.3-0.5-0.5-1.7-0.5-1.9c0-0.2-0.5-1.6-0.5-1.6
		s-1-1.1-0.9-1.5c0.1-0.4,0.3-1,0.3-1.2s0-1,0-1l-1.8,1.2L31,29.7c0,0,0.2-0.4,0.2-0.7c0-0.3-0.2-0.9-0.5-1.1
		c-0.3-0.2-1.2-0.8-1.2-0.8l-1,1l-0.6,1.2c0,0,0.1,0.7,0.1,0.8c0,0.2-0.5,1.2-0.7,1.4C27,31.7,26,32.9,25.9,33
		c-0.1,0.2-0.7,0.9-0.7,0.9s0.1-0.6,0-1.2c-0.1-0.6-0.5-1.2-1-1.6c-0.5-0.4-1.2-1.8-1.2-1.8s0.1-1,0.8-1.8c0.7-0.8,1.7-1.6,2-1.9
		c0.3-0.3,1.5-1.3,1.5-1.3s0.7-0.6,0.5,0c-0.2,0.6-0.5,1.7-0.5,1.7s0.9-0.1,1.1-0.1c0.2,0,0.5-0.6,0.3-0.8c-0.3-0.3-0.7,0-0.3-0.3
		c0.4-0.3,1.1-0.8,1.3-1c0.2-0.2,1.2-2,1.3-2.3c0.1-0.3,0.5-0.8,0.7-0.5c0.2,0.3,0.8,0.9,0.7,1.4c-0.1,0.5-0.9,1.9-0.9,1.9
		s-0.8,0.3-1,0.5c-0.1,0.3,0.1,1.4,0.1,1.4s0.7,0.4,1.1,0.7c0.4,0.3,1,0.4,1.4-0.1c0.3-0.5,1.4-1.2,1.6-1.4c0.1-0.2,0.5-1.6,0.5-1.6
		l-0.3-0.8l0.2-1.3c0,0,0.1-1.6-0.3-1.2c-0.3,0.4-0.6-1.6-0.6-1.8c0-0.2,0.5-0.8-0.1-1c-0.7-0.2-1.2-0.3-1.5-0.4
		c-0.2,0-0.6-0.3-1.2-0.4c2.2-1.2,4.6-2.3,7-3.1c-0.5,1.2-1.4,2.6-1.4,2.6s-0.5,0.7-0.3,0.9c0.2,0.3,0.1,0.7,0,0.8
		c-0.1,0.1-0.5,0.7-0.5,0.7s-0.1,0.6,0.3,0.9c0.4,0.3-0.4,1.1,1.2,0.3c1.6-0.8,1.5-0.8,2-1.3c0.5-0.5,1.3-1.2,1.6-1.5
		c0.3-0.3,1.4-0.9,1.4-0.9s0.3-0.2,0,0.4c-0.3,0.5-0.7,0.9-1.2,1.3c-0.5,0.4-0.5,0.4-0.7,0.8c-0.3,0.4-0.5,1.3-0.6,1.6
		c-0.1,0.3,0.1,0.8,0.3,0.8c0.2,0,0.4-0.4,0.7,0c0.3,0.4,0.2,0,0.3,0.4c0.1,0.4,0.1-0.1,0.1,1.2c-0.1,1.2-0.3,3.9-0.3,3.9
		s-0.4,0.6-0.5,0.9c-0.1,0.3-0.3,0.4-0.5,0.8c-0.2,0.4-0.1-0.2-0.2,0.4C40.1,29.4,40,30,40,30s0,1.4,0,1.6c0,0.3,0.5,2,0.7,2.2
		c0.2,0.2,0.7,0.3,0.7,0c0.1-0.3,0.9-1.8,0.9-1.8s0.4-0.4,0.7-0.7c0.3-0.3,3.2-2.1,3.8-2.3c0.5-0.2,1-0.5,1.2-0.6
		c0.3-0.1,0.6-0.1,1-0.7c0.3-0.5,0.9-2.2,0.9-2.2s-0.7-1-0.4-1.3c0.3-0.3-0.1-0.3,0.4-0.7c0.5-0.4,0.7-0.5,1-1.3
		c0.3-0.8,0.7-2,0.7-2.6c0-0.6-0.1-0.7,0.3-1.1c0.4-0.5,0.5-0.4,0.7-0.8c0.3-0.4,0.4-0.8,0.4-0.8s-0.7-0.9-0.9-1
		c-0.2-0.1-0.2-0.2-0.1-0.5c0.1-0.3,0.2-0.6,0.3-0.8c0.1-0.2,0.1-0.2,0.1-0.2s0.4-1,0.7-2.2c7.7,0.6,14.8,3.6,20.5,8.1
		c-0.5,0.9-1,1.9-0.9,2.2c0.1,0.5,0.3,1.8,0.3,1.8s-0.2,0.8-1.2,0.6c-1-0.3-1.6-1-1.7-1.2c-0.1-0.3-0.3-1.2-0.7-1.6
		c-0.3-0.3-0.8-1.1-1-0.6c-0.2,0.5-0.1,0.9,0,1.6c0.1,0.7,0.7,2.2,0.8,2.2s1.4,0.5,1.4,0.5v0.8c0,0-0.1-0.1-0.6,0
		c-0.5,0.1-1.5,1.4-1.7,1c-0.2-0.5-0.5-0.6-0.5-0.2c0,0.4,0,0.4,0,0.4s1.3,2,0,0.5c-1.3-1.4-1-1.1-1.3-1.4c-0.3-0.3-1-0.1-1.8-0.5
		c-0.8-0.4-1.4-0.8-1.4-0.8s-1.8,0.1-2.2,0.8c-0.4,0.7-1.4,1.3-1.7,1.8c-0.3,0.5-0.2,0.7-1,2.3c-0.8,1.6-1.4,1.9-1.8,2.2
		c-0.4,0.4,0.6,2.5,0.6,2.5l1.4-0.6c0,0,0.1-0.3,0.3,0.1c0.3,0.4,0.6,1.6,1.2,1.2c0.6-0.4,0.9-2.9,0.9-2.9s-0.4-1.8,0-2.2
		c0.4-0.5,1.1-1.2,1.2-0.8c0.1,0.4-0.1,3.1,0.5,3.1s2,0.3,2,0.3L63,34.7c0,0-0.4,1.1-0.7,1.6c-0.3,0.4-1.5,0.9-1.8,1
		c-0.3,0.1-1.1,0-1.1,0s-0.5,0.5-0.7,0c-0.1-0.4-0.5-1.1-0.5-1.1S58.1,36.8,58,37c-0.1,0.2-1,1.6-1.2,1.8c-0.2,0.3-0.6,0.9-0.6,0.9
		l-0.8,1.2c0,0-1,0.1-1,0.3c-0.1,0.2-0.5,0.9-0.5,0.9s1-0.5,1,0s-0.5,1.2-0.7,1.4c-0.3,0.1-0.7-0.7-1.4,0c-0.7,0.7-1.6,2-1.8,2.2
		c-0.2,0.2,1,1.4,1.3,1.6c0.3,0.2,0.3,0.2,0.3,0.2s0.5-0.2-0.1,0.8c-0.5,1-0.3,0.7-0.5,1c-0.2,0.4-0.8,0.8-1,1.5
		c-0.2,0.7,0.4,0.3-0.3,1c-0.7,0.7-0.8,1.5-1.2,1.9c-0.4,0.4-0.2,1.3-0.4,1.8C49,56.1,49,56.1,49,56.1s-0.1,1,0,1.3
		c0.1,0.3,0.8,1.7,1,2c0.2,0.3,1.2,1.8,1.2,1.8l2.1,0.7h1.6l1.3-0.4c0,0-0.6-0.2,0.3-0.3c0.8-0.1-0.2-0.4,0.8-0.1
		c1,0.3,2.1,0.8,2.1,0.8s0.3,0.1,0,0.6c-0.3,0.5-0.8,0.1-0.1,1c0.7,0.8,1,1.2,1,2c0.1,0.8,0.6,2.2,0.6,2.2L60.6,70
		c0,0-0.3,0.3-0.3,0.8c0,0.6,0.1,1,0.1,1s1.1,0.4,1,1.4c-0.1,1,0.1,2.6,0,2.9c-0.1,0.3,1.4,2.2,1.4,2.2s0-0.1,0.5,0
		c0.5,0.1,1.8-1,2.4-1.2c0.7-0.3,1.8-1.5,2.3-2.3c0.6-0.8,1-2,1-2.2c0-0.2-0.3,0.5,0-0.2c0.3-0.7,0-0.5,0.3-0.7
		c0.3-0.3,1-1.2,1.3-1.6c0.3-0.5,0.5-0.7,0.5-1.6S71.1,66,71.1,66s-0.5,0.3,0.1-0.5c0.5-0.8,0.5-0.8,0.7-1.2
		c0.3-0.3,0.4-0.5,1.3-1.7c0.9-1.2,1.3-1.6,1.8-2.4c0.5-0.8,0.8-1.3,0.8-1.3s-0.1-0.5-0.3-0.5c-0.2,0-0.6,0-0.8,0
		c-0.2,0-0.1-0.1-0.5-0.1c-0.4,0-1.6-0.3-1.1-0.7c0.5-0.3,0.5-0.4,0.9-0.5c0.4-0.1,2.3-1.2,2.7-1.6c0.4-0.4,0.5-0.4,1.2-0.9
		c0.6-0.5,0.8-0.9,0.8-1.2c0-0.3-0.4-0.5-0.6-0.8c-0.2-0.3-1-0.8-1.2-0.7c-0.2,0.1-0.2,0.5-0.8,0c-0.6-0.5-2-1.7-2.1-1.9
		c-0.1-0.2,1.4,0.4,1.6,0.4c0.2,0,2.2,0.5,3.1,0.6c0.9,0.1,2.3,0.5,2.8,0.9c0.5,0.4,1.4,1.6,2.3,2.4c1,0.8,1.5,2.2,1.6,2.5
		c0.1,0.4-0.2,0.7,0.7,2.5c0.1,0.3,0.2,0.5,0.3,0.7C81.9,76.1,67.3,87.8,50,87.8z M62.8,49L62,49.7c0,0-1.4-1.1-1.6-1.1
		c-0.2,0-0.7-0.4-0.7-0.4l-0.9-1.4c0,0-1.1-0.1-1.5,0c-0.4,0.1-1.8,0.2-2.4,0.5v-0.7c0,0,0.6-0.6,0.9-1c0.3-0.4,0.7-1.2,0.7-1.2
		s1.1-0.1,1.2,0.1c0.1,0.2,0.7,0.7,0.8,1s0.4-1.4,0.4-1.4s1.1,0.7,1.4,1c0.3,0.4-0.2,1.1,0.1,1.4c0.3,0.3,0.9,0,1.1-0.1
		c0.2-0.1,0.1-0.3,0.4-0.9c0.3-0.6,0.4,0.2,0.8,0.6c0.4,0.4,0.8,0.5,1.2,0.2c0.4-0.3,0-1.2,0.6-1.2c0.7,0,0.4,0.3,0.4,0.5
		c0,0.2,3.5,1.2,3.5,1.2s0.6,0.7,0.5,1.1c-0.1,0.3-1.8,1.2-2,1.3c-0.2,0.1-2.9-0.6-3.7-0.9C62.4,47.9,62.8,49,62.8,49z M66.6,42.7
		c0,0,0,0,0.3-0.1c0.3-0.1,1-0.8,1-0.9s0.8,0,0.8,0s0.6,0.8,1.2,1.1c0.5,0.3,0.4,0.9,0.4,0.9l-0.7,0.7c0,0-1.4-0.6-1.6-0.7
		c-0.2-0.1-0.4,0-0.4,0s0,0-0.5,0.3c0,0-0.8-0.1-1,0C65.9,44.1,66.6,42.7,66.6,42.7z M69.5,50.8c0.1,0,0.1,0.1,0.2,0.3
		c0.1,0.3,0.2,0.8,0.5,1.1c0.5,0.6,1.2,2,1.6,2.5c0.4,0.6,0.6,1.6,0.6,1.8c0,0.1-1,0-1,0s-0.8-1.5-1.2-1.7c-0.4-0.2-0.3-0.8-0.6-1.4
		c-0.3-0.5-1-1.6-1-2.7C68.6,50.8,69.3,50.8,69.5,50.8z"/>
	<path class="st0" d="M50.4,31.7c0.4-0.1,0.7-0.9,0.7-0.9v-0.6l-1.5-0.3c0,0,0.1,0.1-0.4,0c-0.5-0.1-1.1,0-1.1,0
		c0,1,0.6,1.9,0.6,1.9S50,31.7,50.4,31.7z"/>
	<path class="st0" d="M58.8,21c0.2,0.2,0.8-0.1,1-0.4c0.1-0.4,0.3-0.9,0.4-1.1c0.1-0.2,0.8-1.3,0.8-1.3l-0.6-0.4c0,0-1,0.7-1.3,0.8
		c-0.3,0.1-1.2,0.3-1.2,0.3l-0.3,0.3l0.3,1C58.1,20.5,58.6,20.9,58.8,21z"/>
	<path class="st0" d="M71.7,71.9v1.7c0.7,0.2,1.1,0.8,1.4,0c0.3-0.8,0.8-2.3,0.9-2.6c0.1-0.4,0.9-2.4,0.9-2.4l-1.6,1.7L71.7,71.9z"
		/>
	<path class="st0" d="M54.1,38c-0.1,0.2-0.7,1.2-0.7,1.2s-0.4,0.8-0.1,1.2c0.3,0.4,0.6,0,0.6,0c0.3-0.4,0.9-0.6,0.9-0.6
		s0.9-0.7,0.9-0.8c0-0.1-1-1.4-0.9-1.7c0.1-0.3-0.2-1.3-0.3-1.6c-0.1-0.3,0-0.5-0.6-0.4c-0.5,0.1-0.8,2-0.5,2
		C53.7,37.2,54.3,37.8,54.1,38z"/>
	<path class="st0" d="M52.8,39c0.1-0.1,0.5-1.1,0.4-1.2c-0.1-0.1-0.6-0.6-0.6-0.6l-0.9,0.2V39l0.4,0.6L52.8,39z"/>
	<path class="st0" d="M27.5,52c-0.2-0.1-2.3-1.3-2.5-1.4c-0.2-0.1-1,0-1,0s-0.7,0.4-0.6,0.5c0.1,0.1,0.4,0.5,0.5,0.4
		c0.1-0.1,0.4-0.3,0.4-0.3s0.5,0.1,0.8,0.3c0.4,0.3,1.4,0.8,1.6,0.8C26.6,52.3,27.7,52.1,27.5,52z"/>
	<path class="st0" d="M28.6,52.2c-0.4,0-0.9,0.2-1.1,0.3c-0.2,0.1-0.5,0.3-0.4,0.5c0.2,0.2,0.7,0.3,0.7,0.3c0.1,0,1.2,0.1,1.4,0
		c0.3-0.1,0-0.6,0-0.6S29,52.2,28.6,52.2z"/>
</g>
</svg>
